<?xml version="1.0" encoding="utf-8"?>
<!-- Generator: Adobe Illustrator 25.4.1, SVG Export Plug-In . SVG Version: 6.00 Build 0)  -->
<svg version="1.1" id="Layer_1" xmlns="http://www.w3.org/2000/svg" xmlns:xlink="http://www.w3.org/1999/xlink" x="0px" y="0px"
	 viewBox="0 0 400 400" style="enable-background:new 0 0 400 400;" xml:space="preserve">
<g>
	<g>
		<path d="M116.62,193.87c0.59,6.31,1.62,12.63,3.75,18.62c2.09,5.86,5.21,11.15,9.4,15.76c4.24,4.67,9.24,8.67,14.26,12.47
			c5.11,3.87,10.64,7.26,16.95,8.75c6.44,1.52,13.22,1.43,19.79,1.16c3.31-0.13,5.75-1.22,8.11-3.53c2.18-2.14,4.28-4.37,6.38-6.59
			c8.22-8.69,16.05-17.82,22.73-27.77c7.5-11.16,13.46-23.43,16.43-36.59c0.43-1.88-2.47-2.68-2.89-0.8
			c-5.09,22.49-18.84,41.64-34.12,58.43c-1.97,2.17-3.97,4.3-6,6.42c-1.94,2.02-3.83,4.35-6.07,6.04c-2.43,1.84-5.81,1.43-8.69,1.48
			c-3.27,0.05-6.54,0.03-9.8-0.31c-6.29-0.64-11.94-2.86-17.19-6.34c-4.98-3.3-9.73-7.16-14.1-11.23
			c-4.92-4.59-8.99-9.87-11.54-16.14c-2.56-6.31-3.77-13.08-4.41-19.83C119.44,191.97,116.43,191.95,116.62,193.87L116.62,193.87z"
			/>
	</g>
</g>
<g>
	<g>
		<path d="M145.25,137.87c1.93,0,1.93-3,0-3C143.32,134.87,143.31,137.87,145.25,137.87L145.25,137.87z"/>
	</g>
</g>
<g>
	<g>
		<path d="M200.95,135.68c1.93,0,1.93-3,0-3C199.02,132.68,199.01,135.68,200.95,135.68L200.95,135.68z"/>
	</g>
</g>
<g>
	<g>
		<path d="M193.91,283.76c-8.18-0.88-16.39-2.09-24.24-4.64c-7.8-2.53-14.89-6.52-20.78-12.26c-5.92-5.78-10.63-12.64-15.77-19.1
			c-5.12-6.45-10.61-12.6-15.78-19.01c-5.07-6.29-9.85-12.89-13.49-20.13c-3.41-6.78-5.64-14.11-6.42-21.67
			c-1.51-14.7,1.92-29.72,9.12-42.58c7.39-13.21,18.76-23.63,32.18-30.53c13.67-7.03,29.17-10.36,44.51-10.11
			c7.52,0.12,15.94,0.6,22.71,4.21c7.59,4.05,10.3,12.46,13.01,20.08c3.19,8.96,5.24,18.1,6.46,27.53
			c1.22,9.47,2.19,18.98,3.12,28.48c1.88,19.15,3.07,38.48,1.46,57.69c-0.38,4.55-0.74,9.21-1.74,13.67
			c-0.93,4.12-3.06,7.19-6.55,9.56c-3.58,2.43-7.58,4.3-11.39,6.33c-4.3,2.29-8.6,4.58-12.9,6.87c-4.15,2.21-8.31,4.42-12.46,6.63
			c-1.7,0.91-0.19,3.5,1.51,2.59c8.89-4.73,17.78-9.47,26.68-14.2c3.83-2.04,7.88-3.9,11.34-6.54c3.37-2.58,5.57-5.89,6.56-10.02
			c1.09-4.52,1.45-9.29,1.86-13.91c0.44-4.97,0.69-9.95,0.79-14.94c0.2-10-0.23-20-0.97-29.97c-0.74-10-1.81-19.97-2.91-29.94
			c-1.06-9.65-2-19.39-4.36-28.83c-1.17-4.68-2.68-9.27-4.35-13.8c-1.49-4.05-2.97-8.23-5.26-11.91
			c-4.49-7.23-12.14-10.35-20.26-11.58c-15.74-2.38-32.3-0.67-47.27,4.71c-14.77,5.31-28.32,14.35-37.98,26.81
			c-9.39,12.11-15.13,27-16.12,42.3c-0.49,7.59,0.25,15.31,2.33,22.63c2.24,7.92,6.11,15.27,10.71,22.06
			c4.76,7.02,10.27,13.49,15.74,19.96c5.49,6.5,10.64,13.23,15.93,19.9c5.32,6.71,11.24,12.91,18.78,17.12
			c7.33,4.09,15.51,6.39,23.74,7.83c4.12,0.73,8.28,1.25,12.45,1.7C195.82,286.97,195.81,283.96,193.91,283.76L193.91,283.76z"/>
	</g>
</g>
<g>
	<g>
		<path d="M185.58,283.42c-2.91,20.95-5.18,41.98-6.81,63.07c-0.15,1.93,2.85,1.92,3,0c1.6-20.82,3.83-41.59,6.7-62.27
			c0.11-0.81-0.2-1.6-1.05-1.85C186.73,282.17,185.69,282.61,185.58,283.42L185.58,283.42z"/>
	</g>
</g>
<g>
	<g>
		<path d="M180.32,302.59c-5.89,0.6-10.26,4.73-15.08,7.74c-5.22,3.26-10.84,5.78-16.72,7.56c-1.84,0.56-1.06,3.45,0.8,2.89
			c5.69-1.72,11.19-4.11,16.29-7.16c2.42-1.45,4.69-3.11,7.03-4.68c2.32-1.56,4.84-3.06,7.68-3.35
			C182.22,305.39,182.24,302.39,180.32,302.59L180.32,302.59z"/>
	</g>
</g>
<g>
	<g>
		<path d="M188.1,309.3c1.36,2.48,2.26,5.19,3.52,7.72c1.24,2.49,2.65,4.89,4.22,7.18c3.13,4.58,6.85,8.74,11.07,12.34
			c1.46,1.25,3.59-0.87,2.12-2.12c-4.13-3.53-7.8-7.57-10.84-12.08c-1.47-2.19-2.81-4.47-3.98-6.84c-1.26-2.53-2.16-5.24-3.52-7.72
			C189.76,306.09,187.17,307.6,188.1,309.3L188.1,309.3z"/>
	</g>
</g>
<g>
	<g>
		<path d="M176.82,345.82c-3.68,2.25-6.61,5.4-9.46,8.6c-2.84,3.19-5.62,6.44-8.46,9.63c-5.7,6.41-11.69,12.66-18.79,17.54
			c-1.58,1.09-0.08,3.69,1.51,2.59c7.08-4.87,13.11-10.98,18.82-17.36c2.85-3.19,5.62-6.43,8.46-9.63c2.85-3.22,5.73-6.51,9.43-8.78
			C179.98,347.4,178.47,344.81,176.82,345.82L176.82,345.82z"/>
	</g>
</g>
<g>
	<g>
		<path d="M179.22,345.12c3.07,14.35,8.23,28.2,15.26,41.08c0.93,1.69,3.52,0.18,2.59-1.51c-6.91-12.66-11.94-26.26-14.96-40.36
			C181.7,342.44,178.81,343.24,179.22,345.12L179.22,345.12z"/>
	</g>
</g>
<g>
	<g>
		<path d="M212.29,318.4c-0.91,9.06-1.82,18.12-2.74,27.18c-0.19,1.92,2.81,1.91,3,0c0.91-9.06,1.82-18.12,2.74-27.18
			C215.48,316.48,212.48,316.49,212.29,318.4L212.29,318.4z"/>
	</g>
</g>
<g>
	<g>
		<path d="M211.5,316.46c-1.23,0.44-2.37,1.01-3.41,1.81c0.68,0.18,1.37,0.36,2.05,0.54c-0.76-1.2-0.21-2.77-0.09-4.09
			c0.12-1.25-0.12-2.59-0.78-3.68c-0.61-1-1.65-1.76-2.85-1.78c-0.17,0-0.33,0.01-0.49,0.04c-0.51,0.02-0.32,0.23,0.57,0.63
			c0.07-0.06,0.1-0.9,0.12-1.01c0.15-0.62,0.46-1.17,0.82-1.69c1.61-2.31,4.28-3.62,6.4-5.39c2.17-1.81,3.92-4.16,3.94-7.09
			c-0.98,0.13-1.96,0.27-2.95,0.4c1.13,3.96,1.46,8.09,0.87,12.17c-0.13,0.87,0.37,1.99,1.45,1.9c1.7-0.15,2.98-0.94,4.21-2.1
			.37c-0.3-0.73-0.6-1.47-0.9-2.2c-1.02,1.74-2.15,3.42-3.44,4.98c-1.12,1.35-2.69,2.55-3.5,4.11
			c-0.95,1.82-0.42,3.91-0.13,5.83c0.34,2.24,0.67,4.49,1.01,6.73c0.84-0.49,1.67-0.97,2.51-1.46c-1.49-1.27-2.43-2.82-2.83-4.74
			c-0.4-1.89-3.29-1.09-2.89,0.8c0.5,2.37,1.76,4.5,3.6,6.07c1.2,1.02,2.73,0.02,2.51-1.46c-0.29-1.92-0.58-3.85-0.86-5.77
			c-0.26-1.77-1.03-3.89,0.32-5.35c2.38-2.55,4.53-5.2,6.3-8.22c0.51-0.88,0.01-1.9-0.9-2.2c-1.84-0.62-3.62,0.11-5.07,1.27
			c-1.21,0.96-2.4,2.94-4.06,3.09c0.48,0.63,0.96,1.27,1.45,1.9c0.67-4.63,0.41-9.26-0.87-13.77c-0.46-1.62-2.93-1.31-2.95,0.4
			c-0.02,2.87-2.73,4.82-4.86,6.32c-2.28,1.61-4.69,3.4-5.82,6.04c-0.49,1.14-0.88,2.66-0.4,3.86c0.29,0.74,0.86,1.2,1.64,1.31
			c0.59,0.08,0.95-0.18,1.35,0.28c0.75,0.89,0.33,2.47,0.2,3.48c-0.19,1.5-0.16,2.96,0.67,4.28c0.39,0.63,1.39,1.04,2.05,0.54
			c0.84-0.63,1.71-1.15,2.7-1.5C214.1,318.7,213.32,315.8,211.5,316.46L211.5,316.46z"/>
	</g>
</g>
</svg>
