<?xml version="1.0" encoding="utf-8"?>
<!-- Generator: Adobe Illustrator 25.4.1, SVG Export Plug-In . SVG Version: 6.00 Build 0)  -->
<svg version="1.1" id="Layer_1" xmlns="http://www.w3.org/2000/svg" xmlns:xlink="http://www.w3.org/1999/xlink" x="0px" y="0px"
	 viewBox="0 0 400 400" style="enable-background:new 0 0 400 400;" xml:space="preserve">
<g>
	<g>
		<path d="M153.98,126.72c-0.1,27.99-0.02,55.98,0.25,83.97c0.08,7.83,0.17,15.66,0.27,23.49c0.03,1.93,3.03,1.93,3,0
			c-0.37-27.99-0.56-55.98-0.56-83.97c0-7.83,0.01-15.66,0.04-23.49C156.99,124.79,153.99,124.79,153.98,126.72L153.98,126.72z"/>
	</g>
</g>
<g>
	<g>
		<path d="M152.86,124.74c-12.7,17.9-25.71,35.59-39.03,53.04c-3.77,4.94-7.56,9.86-11.38,14.76c0.79,0.1,1.57,0.2,2.36,0.3
			c-7.41-9.92-14.82-19.83-22.22-29.75c-3.73-4.99-7.46-9.98-11.19-14.97c-1.79-2.4-3.58-4.79-5.37-7.19
			c-0.89-1.2-1.79-2.4-2.68-3.59c-0.75-1-2.13-2.35-1.78-3.71c0.28-1.05,1.27-1.88,2.02-2.6c1.03-0.98,2.08-1.94,3.11-2.92
			c2.19-2.06,4.36-4.13,6.53-6.21c4.22-4.05,8.4-8.14,12.54-12.27c8.28-8.26,16.41-16.67,24.38-25.23
			c9.05-9.72,17.88-19.63,26.51-29.72c-0.49,0.13-0.97,0.26-1.46,0.39c7.82,2.53,13.14,9.25,18.27,15.29
			c2.7,3.17,5.44,6.35,8.61,9.06c3.52,3,7.5,5.25,11.9,6.67c4.8,1.54,9.9,2.11,14.92,2.26c5.42,0.16,10.91-0.04,16.29-0.67
			c9.78-1.15,19.94-4.41,26.37-12.32c2.88-3.54,4.28-7.56,5.66-11.84c1.23-3.84,2.88-8.24,7.12-9.56c4.42-1.37,9.11,1.08,12.66,3.55
			c4.05,2.82,7.5,6.54,10.9,10.08c14.14,14.75,25.9,31.76,34.75,50.17c1.13,2.36,2.22,4.73,3.25,7.13c1.02,2.36,2.28,4.83,2.87,7.33
			c0.66,2.77-1.68,4.63-3.43,6.4c-2.03,2.04-4.07,4.06-6.13,6.07c-8.24,8.03-16.71,15.82-25.41,23.36c-2.17,1.88-4.36,3.75-6.56,5.6
			c0.79,0.1,1.57,0.2,2.36,0.3c-7.19-13.35-14.37-26.69-21.56-40.04c-0.73-1.35-2.76-0.68-2.8,0.76
			c-0.68,25.91-1.35,51.81-2.03,77.72c-0.19,7.31-0.38,14.61-0.57,21.92c0.5-0.5,1-1,1.5-1.5c-21.55,0.93-43.13,1.24-64.7,0.91
			c-6.14-0.09-12.28-0.24-18.41-0.44c-1.93-0.06-1.93,2.94,0,3c21.56,0.69,43.14,0.75,64.7,0.17c6.14-0.16,12.27-0.38,18.41-0.65
			c0.83-0.04,1.48-0.66,1.5-1.5c0.68-25.91,1.35-51.81,2.03-77.72c0.19-7.31,0.38-14.61,0.57-21.92c-0.93,0.25-1.86,0.5-2.8,0.76
			c7.19,13.35,14.37,26.69,21.56,40.04c0.49,0.91,1.65,0.9,2.36,0.3c9.05-7.61,17.87-15.49,26.45-23.64
			c4.29-4.07,8.53-8.19,12.67-12.41c1.71-1.74,3.41-3.72,3.45-6.29c0.04-2.59-1.4-5.21-2.38-7.55
			c-8.05-19.29-19.15-37.24-32.83-53.06c-3.42-3.95-7-7.77-10.73-11.44c-3.53-3.47-7.25-6.88-11.79-8.99
			c-4.1-1.9-8.91-2.72-12.99-0.32c-3.89,2.28-5.58,6.54-6.89,10.63c-1.42,4.41-2.87,8.49-6.12,11.93
			c-3.25,3.44-7.42,5.94-11.86,7.53c-5.45,1.94-11.22,2.68-16.97,2.99c-5.31,0.29-10.68,0.39-15.98-0.18
			c-5.12-0.56-10.25-1.88-14.72-4.49c-3.67-2.14-6.74-5.1-9.58-8.23c-5.57-6.12-10.43-13.29-17.65-17.62
			c-1.72-1.03-3.55-1.85-5.46-2.47c-0.47-0.15-1.13,0-1.46,0.39c-15.71,18.38-32.13,36.16-49.22,53.28
			c-4.24,4.25-8.53,8.46-12.85,12.63c-2.16,2.08-4.33,4.16-6.52,6.22c-2.01,1.9-4.34,3.7-6.05,5.88c-1.68,2.13-1.78,4.54-0.25,6.8
			c1.73,2.57,3.72,5,5.57,7.48c3.78,5.06,7.56,10.11,11.34,15.17c8.55,11.45,17.1,22.89,25.66,34.34c0.51,0.68,1.7,1.15,2.36,0.3
			c13.62-17.48,26.94-35.2,39.94-53.15c3.67-5.07,7.32-10.16,10.94-15.26C156.57,124.68,153.97,123.18,152.86,124.74L152.86,124.74z
			"/>
	</g>
</g>
<g>
	<g>
		<path d="M159.51,120.58c0.65,6.76,2.51,13.3,5.54,19.38c0.5,1,2.08,0.95,2.59,0c3.39-6.28,6.51-12.69,9.35-19.23
			c-0.93-0.25-1.86-0.5-2.8-0.76c0.19,1.96,0.39,3.92,0.58,5.88c0.08,0.81,0.63,1.5,1.5,1.5c0.75,0,1.58-0.69,1.5-1.5
			c-0.19-1.96-0.39-3.92-0.58-5.88c-0.07-0.67-0.42-1.26-1.1-1.45c-0.59-0.16-1.43,0.09-1.69,0.69c-2.85,6.54-5.97,12.95-9.35,19.23
			c0.86,0,1.73,0,2.59,0c-2.77-5.58-4.53-11.66-5.13-17.87c-0.08-0.81-0.63-1.5-1.5-1.5C160.25,119.08,159.43,119.77,159.51,120.58
			L159.51,120.58z"/>
	</g>
</g>
<g>
	<g>
		<path d="M181.67,135.09c0.85-6.8,1.7-13.59,2.55-20.39c-0.37,0.48-0.73,0.96-1.1,1.45c-0.54-0.31-0.7-0.33-0.46-0.05
			c0.06,0.11,0.1,0.23,0.13,0.35c0.12,0.37,0.14,0.77,0.19,1.14c0.13,0.96,0.26,1.93,0.39,2.89c0.25,1.85,0.49,3.7,0.74,5.56
			c0.5,3.78,1.01,7.56,1.51,11.34c0.11,0.81,0.61,1.49,1.5,1.5c0.73,0.01,1.61-0.7,1.5-1.5c-0.63-4.74-1.26-9.48-1.9-14.23
			c-0.31-2.34-0.51-4.74-0.94-7.07c-0.32-1.68-1.55-3.35-3.45-2.83c-0.7,0.19-1.02,0.78-1.1,1.45c-0.85,6.8-1.7,13.59-2.55,20.39
			c-0.1,0.81,0.76,1.49,1.5,1.5C181.06,136.6,181.57,135.89,181.67,135.09L181.67,135.09z"/>
	</g>
</g>
<g>
	<g>
		<path d="M182.97,133.94c1.67-0.15,3.28-0.64,4.7-1.54c0.33-0.21,0.59-0.52,0.69-0.9c0.1-0.36,0.05-0.84-0.15-1.16
			c-0.43-0.66-1.34-0.99-2.05-0.54c-0.41,0.26-0.84,0.48-1.28,0.67c0.12-0.05,0.24-0.1,0.36-0.15c-0.72,0.3-1.48,0.51-2.25,0.62
			c0.13-0.02,0.27-0.04,0.4-0.05c-0.14,0.02-0.27,0.03-0.41,0.05c-0.41,0.04-0.76,0.14-1.06,0.44c-0.26,0.26-0.46,0.69-0.44,1.06
			c0.02,0.39,0.14,0.79,0.44,1.06C182.18,133.75,182.58,133.97,182.97,133.94L182.97,133.94z"/>
	</g>
</g>
<g>
	<g>
		<path d="M188.71,117.44c1.21,6.82,1.53,13.77,1.01,20.68c-0.14,1.93,2.86,1.92,3,0c0.54-7.18,0.14-14.39-1.12-21.48
			C191.26,114.74,188.37,115.55,188.71,117.44L188.71,117.44z"/>
	</g>
</g>
<g>
	<g>
		<path d="M199.28,116.26c-0.62,4.03-2.5,7.62-4.15,11.29c-0.79,1.75-1.96,3.75-0.9,5.63c0.46,0.82,1.18,1.54,1.78,2.27
			c0.75,0.91,1.5,1.82,2.25,2.73c1.23,1.49,3.34-0.64,2.12-2.12c-0.67-0.81-1.33-1.62-2-2.43c-0.45-0.55-1.37-1.28-1.56-1.96
			c-0.17-0.6,0.43-1.56,0.68-2.1c0.37-0.83,0.75-1.66,1.13-2.48c1.49-3.22,3-6.49,3.54-10.03c0.12-0.81-0.2-1.6-1.05-1.85
			C200.42,115.01,199.41,115.47,199.28,116.26L199.28,116.26z"/>
	</g>
</g>
<g>
	<g>
		<path d="M213.59,117.12c-2.32-0.56-4.79,0.28-6.37,2.07c-1.69,1.91-2.15,4.41-1.15,6.76c0.93,2.19,2.79,3.7,4.22,5.54
			c0.24,0.3,0.81,0.88,0.73,1.31c-0.07,0.35-0.61,0.67-0.89,0.81c-1.22,0.62-2.61,0.72-3.78,1.5c-1.6,1.07-0.1,3.67,1.51,2.59
			c1.07-0.71,2.39-0.84,3.54-1.39c1.08-0.51,2.12-1.45,2.47-2.64c0.71-2.47-1.65-4.55-3.14-6.2c-1.19-1.32-2.74-3.08-2.08-4.99
			c0.56-1.63,2.4-2.88,4.12-2.47C214.66,120.47,215.47,117.57,213.59,117.12L213.59,117.12z"/>
	</g>
</g>
<g>
	<g>
		<path d="M217.91,115.76c-0.17,6-0.12,12,0.13,17.99c0.08,1.92,3.08,1.93,3,0c-0.26-5.99-0.3-12-0.13-17.99
			C220.96,113.82,217.96,113.83,217.91,115.76L217.91,115.76z"/>
	</g>
</g>
<g>
	<g>
		<path d="M236.05,116.91c-2.95-0.66-4.72,2-5.72,4.37c-1.14,2.71-2.03,5.78-1,8.67c0.44,1.23,1.13,2.34,2.16,3.15
			c0.42,0.33,0.95,0.73,1.46,0.93c0.28,0.11,0.23,0.16,0.14-0.25c-0.08-0.37,0.37-0.13-0.11-0.09c-0.55,0.05-1.08,0.19-1.64,0.22
			c-0.88,0.05-1.76,0.09-2.64,0.11c-1.65,0.04-3.3,0.01-4.95-0.06c-1.93-0.08-1.93,2.92,0,3c1.65,0.07,3.3,0.1,4.95,0.06
			c1.52-0.03,3.16,0.01,4.66-0.32c1.14-0.25,2.28-0.94,2.62-2.12c0.42-1.43-0.56-2.58-1.7-3.25c-0.95-0.56-1.64-1.1-2.05-2.18
			c-0.42-1.1-0.43-2.32-0.2-3.47c0.29-1.43,0.81-2.9,1.49-4.19c0.29-0.56,0.97-1.87,1.75-1.7
			C237.14,120.22,237.94,117.33,236.05,116.91L236.05,116.91z"/>
	</g>
</g>
</svg>
