<?xml version="1.0" encoding="utf-8"?>
<!-- Generator: Adobe Illustrator 25.4.1, SVG Export Plug-In . SVG Version: 6.00 Build 0)  -->
<svg version="1.1" id="Layer_1" xmlns="http://www.w3.org/2000/svg" xmlns:xlink="http://www.w3.org/1999/xlink" x="0px" y="0px"
	 viewBox="0 0 400 400" style="enable-background:new 0 0 400 400;" xml:space="preserve">
<g>
	<g>
		<path d="M82.69,110.49c-1.59,20.16-3.18,40.31-4.77,60.47c-0.78,9.9-1.68,19.89-0.73,29.81c0.22,2.23,0.38,4.62,1,6.78
			c0.59,2.07,1.96,3.31,3.96,4c4.4,1.52,9.23,2.15,13.85,2.62c9.75,1,19.64,0.88,29.44,0.95c10.06,0.08,20.11,0.05,30.17,0
			c20.19-0.11,40.39-0.35,60.58-0.09c20.08,0.26,40.16,1.01,60.16,2.86c2.46,0.23,4.92,0.47,7.37,0.73c0.85,0.09,1.44-0.76,1.5-1.5
			c1.76-21.59,3.53-43.18,5.29-64.77c0.89-10.86,1.78-21.72,2.66-32.57c0.22-2.74,0.45-5.47,0.67-8.21
			c0.16-1.98,0.26-4.18-1.21-5.73c-1.37-1.44-3.4-1.73-5.29-1.86c-2.71-0.18-5.42-0.3-8.14-0.45c-21.74-1.16-43.5-2.12-65.26-2.86
			s-43.53-1.28-65.3-1.6c-10.8-0.16-21.61-0.27-32.41-0.32c-2.83-0.01-5.65-0.03-8.48-0.03c-2.35-0.01-4.7-0.01-7.02,0.41
			c-4.27,0.78-7.17,3.63-10.66,5.93c-1.5,0.99-3.08,1.77-4.91,1.79c-1.93,0.02-1.93,3.02,0,3c3.93-0.04,6.88-2.51,9.88-4.73
			c1.67-1.23,3.39-2.35,5.43-2.87c2.29-0.59,4.69-0.54,7.03-0.54c10.72,0.03,21.44,0.11,32.16,0.24
			c21.27,0.26,42.54,0.72,63.81,1.38c21.43,0.67,42.85,1.53,64.27,2.61c5.31,0.27,10.62,0.55,15.93,0.84
			c1.28,0.07,2.55,0.12,3.83,0.21c0.84,0.06,1.81,0.13,2.54,0.59c1.67,1.04,0.76,4.4,0.63,5.98c-0.87,10.69-1.75,21.38-2.62,32.08
			c-1.73,21.2-3.47,42.4-5.2,63.6c-0.21,2.63-0.43,5.26-0.64,7.88c0.5-0.5,1-1,1.5-1.5c-19.64-2.09-39.39-3.06-59.13-3.46
			c-19.77-0.4-39.55-0.24-59.33-0.11c-19.61,0.13-39.26,0.38-58.87-0.25c-4.74-0.15-9.5-0.41-14.2-1.12
			c-2.33-0.35-4.64-0.8-6.92-1.39c-0.94-0.24-1.96-0.44-2.83-0.86c-1.03-0.49-1.31-1.42-1.52-2.47c-1.89-9.43-1.17-19.42-0.46-28.93
			c1.47-19.71,3.1-39.42,4.66-59.13c0.2-2.48,0.39-4.96,0.59-7.43C85.84,108.57,82.84,108.58,82.69,110.49L82.69,110.49z"/>
	</g>
</g>
<g>
	<g>
		<path d="M101.65,106.98c-0.19,4.94-0.38,9.88-0.58,14.82c-0.08,1.93,2.91,1.92,3,0c0.13-2.78,0.26-5.57,0.39-8.35
			c0.03-0.64,0.02-1.3,0.09-1.93c0.04-0.33,0.03-0.36,0.31-0.48c0.48-0.21,1.13-0.23,1.65-0.3c0.61-0.09,1.22-0.18,1.84-0.25
			c1.31-0.16,2.64-0.32,3.96-0.39c0.6-0.03,1.68-0.16,2.09,0.4c0.3,0.42-0.18,1.22-0.56,1.61c-0.72,0.74-1.81,1.05-2.78,1.26
			c-1.31,0.28-2.66,0.35-3.99,0.48c-1.59,0.15-3.19,0.31-4.78,0.46c-0.81,0.08-1.5,0.63-1.5,1.5c0,0.75,0.69,1.58,1.5,1.5
			c1.74-0.17,3.48-0.33,5.22-0.5c1.57-0.15,3.17-0.25,4.71-0.63c2.69-0.66,5.68-2.78,5.22-5.93c-0.51-3.5-4.49-3.25-7.12-2.99
			c-1.72,0.17-3.44,0.39-5.15,0.67c-1.49,0.24-2.88,0.79-3.39,2.35c-0.27,0.81-0.23,1.73-0.27,2.58c-0.05,0.98-0.09,1.95-0.14,2.93
			c-0.09,2-0.19,4-0.28,6c1,0,2,0,3,0c0.19-4.94,0.38-9.88,0.58-14.82C104.73,105.05,101.73,105.06,101.65,106.98L101.65,106.98z"/>
	</g>
</g>
<g>
	<g>
		<path d="M120.77,117.43c-0.37-1.29-0.87-2.77-0.36-4.03c0.45-1.1,1.4-1.08,2.52-1c1.33,0.11,2.63,0.03,3.96,0
			c1.02-0.02,2.2-0.03,3,0.67c0.83,0.73,1.05,2.04,1.14,3.08c0.09,1.18,0.01,2.35-0.33,3.48c-0.33,1.08-0.93,2.13-1.84,2.83
			c-0.68,0.52-1.67,0.83-2.53,0.84c-0.99,0.02-1.92-0.24-2.55-1.02c-0.87-1.06-0.93-2.61-1.03-3.92c-0.06-0.81-0.65-1.5-1.5-1.5
			c-0.77,0-1.56,0.69-1.5,1.5c0.13,1.84,0.31,3.79,1.37,5.36c0.9,1.31,2.29,2.19,3.85,2.46c3.34,0.56,6.59-1.21,8.03-4.26
			c0.73-1.55,1.07-3.24,1.06-4.95c-0.01-1.72-0.3-3.66-1.28-5.11c-2.22-3.28-6.15-2.19-9.48-2.44c-1.17-0.09-2.31-0.14-3.4,0.36
			c-0.85,0.39-1.56,1.1-2,1.92c-1.11,2.07-0.65,4.36-0.03,6.5C118.41,120.08,121.31,119.29,120.77,117.43L120.77,117.43z"/>
	</g>
</g>
<g>
	<g>
		<path d="M151.83,109.79c-5.62-0.59-10.23,3.93-11.6,9.06c-0.36,1.33-0.54,2.73-0.56,4.11c-0.03,1.47,0.16,2.94,1.39,3.9
			c2.02,1.57,5.38,1.13,7.72,0.69c3.11-0.58,5.98-2,8.43-3.99c0.76-0.62,0.46-1.91-0.3-2.36c-1.79-1.04-3.86-1.53-5.92-1.32
			c-0.81,0.08-1.5,0.63-1.5,1.5c0,0.75,0.69,1.58,1.5,1.5c1.57-0.15,3.04,0.12,4.4,0.91c-0.1-0.79-0.2-1.57-0.3-2.36
			c-1.65,1.34-3.6,2.31-5.64,2.88c-1.81,0.5-4.05,0.89-5.9,0.44c-0.9-0.22-0.88-0.66-0.88-1.54c0-1.08,0.11-2.15,0.36-3.2
			c0.47-1.98,1.4-3.83,2.91-5.22c1.61-1.48,3.72-2.23,5.89-2c0.81,0.09,1.5-0.75,1.5-1.5C153.33,110.4,152.64,109.87,151.83,109.79
			L151.83,109.79z"/>
	</g>
</g>
<g>
	<g>
		<path d="M177.26,108.13c-3.15-0.14-6.31-0.04-9.45,0.31c-1.37,0.16-2.91,0.22-3.99,1.19c-1.1,1-1.21,2.55-0.56,3.82
			c1.29,2.52,4.26,2.93,6.62,3.93c1.06,0.45,1.91,0.98,2.43,1.98c0.1,0.19,0.13,0.29,0.19,0.49c0.06,0.21,0.09,0.4,0.1,0.47
			c0.02,0.42,0.01,0.64-0.22,0.91c-0.54,0.63-1.8,0.5-2.72,0.49c-1.4-0.03-2.8,0.04-4.05,0.74c-1.68,0.95-0.17,3.54,1.51,2.59
			c0.81-0.45,1.86-0.34,2.83-0.32c1.17,0.02,2.37-0.03,3.44-0.57c2.39-1.2,2.63-4.04,1.55-6.23c-1.19-2.39-3.74-3.29-6.1-4.1
			c-0.97-0.34-2.15-0.66-2.79-1.53c-0.11-0.15-0.17-0.29-0.21-0.43c-0.05-0.17,0.01-0.03-0.03,0.03c0.2-0.23,0.76-0.29,1.1-0.34
			c3.41-0.5,6.91-0.57,10.35-0.42C179.19,111.22,179.19,108.22,177.26,108.13L177.26,108.13z"/>
	</g>
</g>
<g>
	<g>
		<path d="M181.3,109.7c-0.77,4.12-1.79,8.18-3.04,12.18c-0.58,1.85,2.32,2.64,2.89,0.8c1.25-4,2.27-8.06,3.04-12.18
			c0.15-0.8-0.22-1.62-1.05-1.85C182.42,108.45,181.45,108.9,181.3,109.7L181.3,109.7z"/>
	</g>
</g>
<g>
	<g>
		<path d="M178.58,110.22c4.24,0.32,8.48,0.64,12.71,0.95c0.81,0.06,1.5-0.73,1.5-1.5c0-0.86-0.69-1.44-1.5-1.5
			c-4.24-0.32-8.48-0.64-12.71-0.95c-0.81-0.06-1.5,0.73-1.5,1.5C177.08,109.58,177.77,110.16,178.58,110.22L178.58,110.22z"/>
	</g>
</g>
<g>
	<g>
		<path d="M194.9,109.73c-1.72,4.97-3.02,10.06-3.88,15.25c-0.13,0.8,0.21,1.61,1.05,1.85c0.72,0.2,1.71-0.24,1.85-1.05
			c0.86-5.18,2.16-10.28,3.88-15.25c0.27-0.77-0.3-1.64-1.05-1.85C195.92,108.46,195.16,108.96,194.9,109.73L194.9,109.73z"/>
	</g>
</g>
<g>
	<g>
		<path d="M200.81,111.33c3.05,7.56,7.52,14.45,13.27,20.24c1.36,1.37,3.48-0.75,2.12-2.12c-5.36-5.41-9.65-11.85-12.5-18.92
			c-0.3-0.75-1-1.28-1.85-1.05C201.15,109.69,200.51,110.57,200.81,111.33L200.81,111.33z"/>
	</g>
</g>
<g>
	<g>
		<path d="M211.15,114.56c-2.55,0.25-4.51,1.85-5.86,3.95c-1.4,2.17-1.93,4.7-3.19,6.88c-0.4,0.7-0.16,1.64,0.54,2.05
			c0.7,0.41,1.65,0.17,2.05-0.54c1.18-2.06,1.74-4.35,2.87-6.36c0.5-0.89,0.86-1.37,1.63-2.05c-0.01,0.01,0.3-0.24,0.19-0.16
			c-0.12,0.09,0.18-0.12,0.21-0.14c0.2-0.13,0.42-0.25,0.63-0.36c0.09-0.04,0.19-0.08,0.04-0.02c0.11-0.04,0.23-0.08,0.34-0.12
			c0.12-0.03,0.24-0.06,0.35-0.09c0.3-0.09-0.16,0,0.18-0.03c0.81-0.08,1.5-0.63,1.5-1.5C212.65,115.31,211.96,114.49,211.15,114.56
			L211.15,114.56z"/>
	</g>
</g>
<g>
	<g>
		<path d="M92,135.93c-0.08,2.38-0.07,4.76,0.07,7.13c0.06,1.1,0.15,2.2,0.26,3.3c0.11,1.11,0.07,2.48,0.88,3.34
			c0.7,0.75,1.61,0.82,2.57,0.84c1.29,0.02,2.58,0.03,3.86,0.05c2.34,0.02,4.68,0.02,7.03,0.01c1.98-0.01,4.8,0.42,5.49-2.04
			c0.29-1.04,0.22-2.23,0.29-3.29c0.07-1.17,0.14-2.35,0.21-3.52s0.14-2.35,0.21-3.52c0.07-1.11,0.24-2.28,0.14-3.38
			c-0.21-2.2-2.12-3.02-4.09-3.08c-5.25-0.15-10.64,0.59-15.77,1.67c-1.89,0.4-1.09,3.29,0.8,2.89c2.98-0.63,5.99-1.08,9.02-1.32
			c1.5-0.12,3-0.2,4.5-0.22c0.52-0.01,2.32-0.23,2.54,0.27c0.1,0.23,0,0.65-0.01,0.89c-0.02,0.41-0.05,0.82-0.07,1.23
			c-0.05,0.76-0.09,1.53-0.14,2.29c-0.09,1.59-0.19,3.17-0.28,4.76c-0.04,0.7-0.08,1.41-0.12,2.11c-0.02,0.38-0.11,0.82-0.07,1.19
			c0.01,0.05-0.06,0.21-0.04,0.25c-0.06-0.21,0.33-0.04,0.12-0.18c-0.15-0.1-0.77,0.01-0.96,0.01c-0.35,0-0.7,0-1.05,0.01
			c-0.82,0-1.64,0.01-2.46,0.01c-1.76,0-3.51,0-5.27-0.02c-0.82-0.01-1.64-0.02-2.46-0.03c-0.47-0.01-0.94-0.01-1.41-0.02
			c-0.14,0-0.33-0.04-0.47-0.01c-0.28,0.05-0.09-0.08-0.07-0.05c0.13,0.22,0.26,0.44,0.39,0.66c-0.35-0.84-0.32-1.92-0.4-2.82
			c-0.09-1.04-0.16-2.08-0.2-3.13c-0.09-2.09-0.1-4.18-0.02-6.26C95.07,134,92.07,134,92,135.93L92,135.93z"/>
	</g>
</g>
<g>
	<g>
		<path d="M251.14,135.94c-0.08,2.38-0.07,4.76,0.07,7.13c0.06,1.1,0.15,2.2,0.26,3.3c0.11,1.11,0.07,2.48,0.88,3.34
			c0.7,0.75,1.61,0.82,2.57,0.84c1.29,0.02,2.58,0.03,3.86,0.04c2.34,0.02,4.68,0.02,7.03,0.01c1.98-0.01,4.8,0.42,5.49-2.04
			c0.29-1.04,0.22-2.23,0.29-3.29c0.07-1.17,0.14-2.35,0.21-3.52c0.07-1.17,0.14-2.35,0.21-3.52c0.07-1.11,0.24-2.28,0.14-3.38
			c-0.21-2.2-2.12-3.02-4.09-3.08c-5.25-0.15-10.64,0.59-15.77,1.67c-1.89,0.4-1.09,3.29,0.8,2.89c2.98-0.63,5.99-1.08,9.02-1.32
			c1.5-0.12,3-0.2,4.5-0.22c0.52-0.01,2.32-0.23,2.54,0.27c0.1,0.22,0,0.65-0.01,0.89c-0.02,0.41-0.05,0.82-0.07,1.23
			c-0.05,0.76-0.09,1.53-0.14,2.29c-0.09,1.59-0.19,3.17-0.28,4.76c-0.04,0.7-0.08,1.41-0.12,2.11c-0.02,0.38-0.11,0.82-0.07,1.19
			c0.01,0.05-0.06,0.21-0.04,0.25c-0.06-0.21,0.33-0.04,0.12-0.18c-0.15-0.1-0.77,0.01-0.96,0.01c-0.35,0-0.7,0-1.05,0.01
			c-0.82,0-1.64,0.01-2.46,0.01c-1.76,0-3.51,0-5.27-0.02c-0.82-0.01-1.64-0.02-2.46-0.03c-0.47-0.01-0.94-0.01-1.41-0.02
			c-0.14,0-0.33-0.04-0.47-0.01c-0.28,0.05-0.09-0.08-0.07-0.05c0.13,0.22,0.26,0.44,0.39,0.66c-0.35-0.84-0.32-1.92-0.4-2.82
			c-0.09-1.04-0.16-2.08-0.2-3.13c-0.09-2.09-0.1-4.18-0.02-6.26C254.21,134.01,251.21,134.01,251.14,135.94L251.14,135.94z"/>
	</g>
</g>
<g>
	<g>
		<path d="M224.14,135.94c-0.08,2.38-0.07,4.76,0.07,7.13c0.06,1.1,0.15,2.2,0.26,3.3c0.11,1.11,0.07,2.48,0.88,3.34
			c0.7,0.75,1.61,0.82,2.57,0.84c1.29,0.02,2.58,0.03,3.86,0.04c2.34,0.02,4.68,0.02,7.03,0.01c1.98-0.01,4.8,0.42,5.49-2.04
			c0.29-1.04,0.22-2.23,0.29-3.29c0.07-1.17,0.14-2.35,0.21-3.52s0.14-2.35,0.21-3.52c0.07-1.11,0.24-2.28,0.14-3.38
			c-0.21-2.2-2.12-3.02-4.09-3.08c-5.25-0.15-10.64,0.59-15.77,1.67c-1.89,0.4-1.09,3.29,0.8,2.89c2.98-0.63,5.99-1.08,9.02-1.32
			c1.5-0.12,3-0.2,4.5-0.22c0.52-0.01,2.32-0.23,2.54,0.27c0.1,0.22,0,0.65-0.01,0.89c-0.02,0.41-0.05,0.82-0.07,1.23
			c-0.05,0.76-0.09,1.53-0.14,2.29c-0.09,1.59-0.19,3.17-0.28,4.76c-0.04,0.7-0.08,1.41-0.12,2.11c-0.02,0.38-0.11,0.82-0.07,1.19
			c0.01,0.05-0.06,0.21-0.04,0.25c-0.06-0.21,0.33-0.04,0.12-0.18c-0.15-0.1-0.77,0.01-0.96,0.01c-0.35,0-0.7,0-1.05,0.01
			c-0.82,0-1.64,0.01-2.46,0.01c-1.76,0-3.51,0-5.27-0.02c-0.82-0.01-1.64-0.02-2.46-0.03c-0.47-0.01-0.94-0.01-1.41-0.02
			c-0.14,0-0.33-0.04-0.47-0.01c-0.28,0.05-0.09-0.08-0.07-0.05c0.13,0.22,0.26,0.44,0.39,0.66c-0.35-0.84-0.32-1.92-0.4-2.82
			c-0.09-1.04-0.16-2.08-0.2-3.13c-0.09-2.09-0.1-4.18-0.02-6.26C227.21,134.01,224.21,134.01,224.14,135.94L224.14,135.94z"/>
	</g>
</g>
<g>
	<g>
		<path d="M198.14,135.94c-0.08,2.38-0.07,4.76,0.07,7.13c0.06,1.1,0.15,2.2,0.26,3.3c0.11,1.11,0.07,2.48,0.88,3.34
			c0.7,0.75,1.61,0.82,2.57,0.84c1.29,0.02,2.58,0.03,3.86,0.04c2.34,0.02,4.68,0.02,7.03,0.01c1.98-0.01,4.8,0.42,5.49-2.04
			c0.29-1.04,0.22-2.23,0.29-3.29c0.07-1.17,0.14-2.35,0.21-3.52s0.14-2.35,0.21-3.52c0.07-1.11,0.24-2.28,0.14-3.38
			c-0.21-2.2-2.12-3.02-4.09-3.08c-5.25-0.15-10.64,0.59-15.77,1.67c-1.89,0.4-1.09,3.29,0.8,2.89c2.98-0.63,5.99-1.08,9.02-1.32
			c1.5-0.12,3-0.2,4.5-0.22c0.52-0.01,2.32-0.23,2.54,0.27c0.1,0.22,0,0.65-0.01,0.89c-0.02,0.41-0.05,0.82-0.07,1.23
			c-0.05,0.76-0.09,1.53-0.14,2.29c-0.09,1.59-0.19,3.17-0.28,4.76c-0.04,0.7-0.08,1.41-0.12,2.11c-0.02,0.38-0.11,0.82-0.07,1.19
			c0.01,0.05-0.06,0.21-0.04,0.25c-0.06-0.21,0.33-0.04,0.12-0.18c-0.15-0.1-0.77,0.01-0.96,0.01c-0.35,0-0.7,0-1.05,0.01
			c-0.82,0-1.64,0.01-2.46,0.01c-1.76,0-3.51,0-5.27-0.02c-0.82-0.01-1.64-0.02-2.46-0.03c-0.47-0.01-0.94-0.01-1.41-0.02
			c-0.14,0-0.33-0.04-0.47-0.01c-0.28,0.05-0.09-0.08-0.07-0.05c0.13,0.22,0.26,0.44,0.39,0.66c-0.35-0.84-0.32-1.92-0.4-2.82
			c-0.09-1.04-0.16-2.08-0.2-3.13c-0.09-2.09-0.1-4.18-0.02-6.26C201.21,134.01,198.21,134.01,198.14,135.94L198.14,135.94z"/>
	</g>
</g>
<g>
	<g>
		<path d="M172.14,135.94c-0.08,2.38-0.07,4.76,0.07,7.13c0.06,1.1,0.15,2.2,0.26,3.3c0.11,1.11,0.07,2.48,0.88,3.34
			c0.7,0.75,1.61,0.82,2.57,0.84c1.29,0.02,2.58,0.03,3.86,0.04c2.34,0.02,4.68,0.02,7.03,0.01c1.98-0.01,4.8,0.42,5.49-2.04
			c0.29-1.04,0.22-2.23,0.29-3.29c0.07-1.17,0.14-2.35,0.21-3.52s0.14-2.35,0.21-3.52c0.07-1.11,0.24-2.28,0.14-3.38
			c-0.21-2.2-2.12-3.02-4.09-3.08c-5.25-0.15-10.64,0.59-15.77,1.67c-1.89,0.4-1.09,3.29,0.8,2.89c2.98-0.63,5.99-1.08,9.02-1.32
			c1.5-0.12,3-0.2,4.5-0.22c0.52-0.01,2.32-0.23,2.54,0.27c0.1,0.22,0,0.65-0.01,0.89c-0.02,0.41-0.05,0.82-0.07,1.23
			c-0.05,0.76-0.09,1.53-0.14,2.29c-0.09,1.59-0.19,3.17-0.28,4.76c-0.04,0.7-0.08,1.41-0.12,2.11c-0.02,0.38-0.11,0.82-0.07,1.19
			c0.01,0.05-0.06,0.21-0.04,0.25c-0.06-0.21,0.33-0.04,0.12-0.18c-0.15-0.1-0.77,0.01-0.96,0.01c-0.35,0-0.7,0-1.05,0.01
			c-0.82,0-1.64,0.01-2.46,0.01c-1.76,0-3.51,0-5.27-0.02c-0.82-0.01-1.64-0.02-2.46-0.03c-0.47-0.01-0.94-0.01-1.41-0.02
			c-0.14,0-0.33-0.04-0.47-0.01c-0.28,0.05-0.09-0.08-0.07-0.05c0.13,0.22,0.26,0.44,0.39,0.66c-0.35-0.84-0.32-1.92-0.4-2.82
			c-0.09-1.04-0.16-2.08-0.2-3.13c-0.09-2.09-0.1-4.18-0.02-6.26C175.21,134.01,172.21,134.01,172.14,135.94L172.14,135.94z"/>
	</g>
</g>
<g>
	<g>
		<path d="M146.14,135.94c-0.08,2.38-0.07,4.76,0.07,7.13c0.06,1.1,0.15,2.2,0.26,3.3c0.11,1.11,0.07,2.48,0.88,3.34
			c0.7,0.75,1.61,0.82,2.57,0.84c1.29,0.02,2.58,0.03,3.86,0.04c2.34,0.02,4.68,0.02,7.03,0.01c1.98-0.01,4.8,0.42,5.49-2.04
			c0.29-1.04,0.22-2.23,0.29-3.29c0.07-1.17,0.14-2.35,0.21-3.52s0.14-2.35,0.21-3.52c0.07-1.11,0.24-2.28,0.14-3.38
			c-0.21-2.2-2.12-3.02-4.09-3.08c-5.25-0.15-10.64,0.59-15.77,1.67c-1.89,0.4-1.09,3.29,0.8,2.89c2.98-0.63,5.99-1.08,9.02-1.32
			c1.5-0.12,3-0.2,4.5-0.22c0.52-0.01,2.32-0.23,2.54,0.27c0.1,0.22,0,0.65-0.01,0.89c-0.02,0.41-0.05,0.82-0.07,1.23
			c-0.05,0.76-0.09,1.53-0.14,2.29c-0.09,1.59-0.19,3.17-0.28,4.76c-0.04,0.7-0.08,1.41-0.12,2.11c-0.02,0.38-0.11,0.82-0.07,1.19
			c0.01,0.05-0.06,0.21-0.04,0.25c-0.06-0.21,0.33-0.04,0.12-0.18c-0.15-0.1-0.77,0.01-0.96,0.01c-0.35,0-0.7,0-1.05,0.01
			c-0.82,0-1.64,0.01-2.46,0.01c-1.76,0-3.51,0-5.27-0.02c-0.82-0.01-1.64-0.02-2.46-0.03c-0.47-0.01-0.94-0.01-1.41-0.02
			c-0.14,0-0.33-0.04-0.47-0.01c-0.28,0.05-0.09-0.08-0.07-0.05c0.13,0.22,0.26,0.44,0.39,0.66c-0.35-0.84-0.32-1.92-0.4-2.82
			c-0.09-1.04-0.16-2.08-0.2-3.13c-0.09-2.09-0.1-4.18-0.02-6.26C149.21,134.01,146.21,134.01,146.14,135.94L146.14,135.94z"/>
	</g>
</g>
<g>
	<g>
		<path d="M120.14,135.94c-0.08,2.38-0.07,4.76,0.07,7.13c0.06,1.1,0.15,2.2,0.26,3.3c0.11,1.11,0.07,2.48,0.88,3.34
			c0.7,0.75,1.61,0.82,2.57,0.84c1.29,0.02,2.58,0.03,3.86,0.04c2.34,0.02,4.68,0.02,7.03,0.01c1.98-0.01,4.8,0.42,5.49-2.04
			c0.29-1.04,0.22-2.23,0.29-3.29c0.07-1.17,0.14-2.35,0.21-3.52s0.14-2.35,0.21-3.52c0.07-1.11,0.24-2.28,0.14-3.38
			c-0.21-2.2-2.12-3.02-4.09-3.08c-5.25-0.15-10.64,0.59-15.77,1.67c-1.89,0.4-1.09,3.29,0.8,2.89c2.98-0.63,5.99-1.08,9.02-1.32
			c1.5-0.12,3-0.2,4.5-0.22c0.52-0.01,2.32-0.23,2.54,0.27c0.1,0.22,0,0.65-0.01,0.89c-0.02,0.41-0.05,0.82-0.07,1.23
			c-0.05,0.76-0.09,1.53-0.14,2.29c-0.09,1.59-0.19,3.17-0.28,4.76c-0.04,0.7-0.08,1.41-0.12,2.11c-0.02,0.38-0.11,0.82-0.07,1.19
			c0.01,0.05-0.06,0.21-0.04,0.25c-0.06-0.21,0.33-0.04,0.12-0.18c-0.15-0.1-0.77,0.01-0.96,0.01c-0.35,0-0.7,0-1.05,0.01
			c-0.82,0-1.64,0.01-2.46,0.01c-1.76,0-3.51,0-5.27-0.02c-0.82-0.01-1.64-0.02-2.46-0.03c-0.47-0.01-0.94-0.01-1.41-0.02
			c-0.14,0-0.33-0.04-0.47-0.01c-0.28,0.05-0.09-0.08-0.07-0.05c0.13,0.22,0.26,0.44,0.39,0.66c-0.35-0.84-0.32-1.92-0.4-2.82
			c-0.09-1.04-0.16-2.08-0.2-3.13c-0.09-2.09-0.1-4.18-0.02-6.26C123.21,134.01,120.21,134.01,120.14,135.94L120.14,135.94z"/>
	</g>
</g>
<g>
	<g>
		<path d="M91.57,159.93c-0.08,2.38-0.07,4.76,0.07,7.13c0.06,1.1,0.15,2.2,0.26,3.3c0.11,1.11,0.07,2.48,0.88,3.34
			c0.7,0.75,1.61,0.82,2.57,0.84c1.29,0.02,2.58,0.03,3.86,0.04c2.34,0.02,4.68,0.02,7.03,0.01c1.98-0.01,4.8,0.42,5.49-2.04
			c0.29-1.04,0.22-2.23,0.29-3.29c0.07-1.17,0.14-2.35,0.21-3.52c0.07-1.17,0.14-2.35,0.21-3.52c0.07-1.11,0.24-2.28,0.14-3.38
			c-0.21-2.2-2.12-3.02-4.09-3.08c-5.25-0.15-10.64,0.59-15.77,1.67c-1.89,0.4-1.09,3.29,0.8,2.89c2.98-0.63,5.99-1.08,9.02-1.32
			c1.5-0.12,3-0.2,4.5-0.22c0.52-0.01,2.32-0.23,2.54,0.27c0.1,0.22,0,0.65-0.01,0.89c-0.02,0.41-0.05,0.82-0.07,1.23
			c-0.05,0.76-0.09,1.53-0.14,2.29c-0.09,1.59-0.19,3.17-0.28,4.76c-0.04,0.7-0.08,1.41-0.12,2.11c-0.02,0.38-0.11,0.82-0.07,1.19
			c0.01,0.05-0.06,0.21-0.04,0.25c-0.06-0.21,0.33-0.04,0.12-0.18c-0.15-0.1-0.77,0.01-0.96,0.01c-0.35,0-0.7,0-1.05,0.01
			c-0.82,0-1.64,0.01-2.46,0.01c-1.76,0-3.51,0-5.27-0.02c-0.82-0.01-1.64-0.02-2.46-0.03c-0.47-0.01-0.94-0.01-1.41-0.02
			c-0.14,0-0.33-0.04-0.47-0.01c-0.28,0.05-0.09-0.08-0.07-0.05c0.13,0.22,0.26,0.44,0.39,0.66c-0.35-0.84-0.32-1.92-0.4-2.82
			c-0.09-1.04-0.16-2.08-0.2-3.13c-0.09-2.09-0.1-4.18-0.02-6.26C94.64,158,91.64,158.01,91.57,159.93L91.57,159.93z"/>
	</g>
</g>
<g>
	<g>
		<path d="M250.71,159.94c-0.08,2.38-0.07,4.76,0.07,7.13c0.06,1.1,0.15,2.2,0.26,3.3c0.11,1.11,0.07,2.48,0.88,3.34
			c0.7,0.75,1.61,0.82,2.57,0.84c1.29,0.02,2.58,0.03,3.86,0.04c2.34,0.02,4.68,0.02,7.03,0.01c1.98-0.01,4.8,0.42,5.49-2.04
			c0.29-1.04,0.22-2.23,0.29-3.29c0.07-1.17,0.14-2.35,0.21-3.52c0.07-1.17,0.14-2.35,0.21-3.52c0.07-1.11,0.24-2.28,0.14-3.38
			c-0.21-2.2-2.12-3.02-4.09-3.08c-5.25-0.15-10.64,0.59-15.77,1.67c-1.89,0.4-1.09,3.29,0.8,2.89c2.98-0.63,5.99-1.08,9.02-1.32
			c1.5-0.12,3-0.2,4.5-0.22c0.52-0.01,2.32-0.23,2.54,0.27c0.1,0.23,0,0.65-0.01,0.89c-0.02,0.41-0.05,0.82-0.07,1.23
			c-0.05,0.76-0.09,1.53-0.14,2.29c-0.09,1.59-0.19,3.17-0.28,4.76c-0.04,0.7-0.08,1.41-0.12,2.11c-0.02,0.38-0.11,0.82-0.07,1.19
			c0.01,0.05-0.06,0.21-0.04,0.25c-0.06-0.21,0.33-0.04,0.12-0.18c-0.15-0.1-0.77,0.01-0.96,0.01c-0.35,0-0.7,0-1.05,0.01
			c-0.82,0-1.64,0.01-2.46,0.01c-1.76,0-3.51,0-5.27-0.02c-0.82-0.01-1.64-0.02-2.46-0.03c-0.47-0.01-0.94-0.01-1.41-0.02
			c-0.14,0-0.33-0.04-0.47-0.01c-0.28,0.05-0.09-0.08-0.07-0.05c0.13,0.22,0.26,0.44,0.39,0.66c-0.35-0.84-0.32-1.92-0.4-2.82
			c-0.09-1.04-0.16-2.08-0.2-3.13c-0.09-2.09-0.1-4.18-0.02-6.26C253.78,158.01,250.78,158.01,250.71,159.94L250.71,159.94z"/>
	</g>
</g>
<g>
	<g>
		<path d="M223.71,159.94c-0.08,2.38-0.07,4.76,0.07,7.13c0.06,1.1,0.15,2.2,0.26,3.3c0.11,1.11,0.07,2.48,0.88,3.34
			c0.7,0.75,1.61,0.82,2.57,0.84c1.29,0.02,2.58,0.03,3.86,0.04c2.34,0.02,4.68,0.02,7.03,0.01c1.98-0.01,4.8,0.42,5.49-2.04
			c0.29-1.04,0.22-2.23,0.29-3.29c0.07-1.17,0.14-2.35,0.21-3.52s0.14-2.35,0.21-3.52c0.07-1.11,0.24-2.28,0.14-3.38
			c-0.21-2.2-2.12-3.02-4.09-3.08c-5.25-0.15-10.64,0.59-15.77,1.67c-1.89,0.4-1.09,3.29,0.8,2.89c2.98-0.63,5.99-1.08,9.02-1.32
			c1.5-0.12,3-0.2,4.5-0.22c0.52-0.01,2.32-0.23,2.54,0.27c0.1,0.23,0,0.65-0.01,0.89c-0.02,0.41-0.05,0.82-0.07,1.23
			c-0.05,0.76-0.09,1.53-0.14,2.29c-0.09,1.59-0.19,3.17-0.28,4.76c-0.04,0.7-0.08,1.41-0.12,2.11c-0.02,0.38-0.11,0.82-0.07,1.19
			c0.01,0.05-0.06,0.21-0.04,0.25c-0.06-0.21,0.33-0.04,0.12-0.18c-0.15-0.1-0.77,0.01-0.96,0.01c-0.35,0-0.7,0-1.05,0.01
			c-0.82,0-1.64,0.01-2.46,0.01c-1.76,0-3.51,0-5.27-0.02c-0.82-0.01-1.64-0.02-2.46-0.03c-0.47-0.01-0.94-0.01-1.41-0.02
			c-0.14,0-0.33-0.04-0.47-0.01c-0.28,0.05-0.09-0.08-0.07-0.05c0.13,0.22,0.26,0.44,0.39,0.66c-0.35-0.84-0.32-1.92-0.4-2.82
			c-0.09-1.04-0.16-2.08-0.2-3.13c-0.09-2.09-0.1-4.18-0.02-6.26C226.78,158.01,223.78,158.01,223.71,159.94L223.71,159.94z"/>
	</g>
</g>
<g>
	<g>
		<path d="M197.71,159.94c-0.08,2.38-0.07,4.76,0.07,7.13c0.06,1.1,0.15,2.2,0.26,3.3c0.11,1.11,0.07,2.48,0.88,3.34
			c0.7,0.75,1.61,0.82,2.57,0.84c1.29,0.02,2.58,0.03,3.86,0.04c2.34,0.02,4.68,0.02,7.03,0.01c1.98-0.01,4.8,0.42,5.49-2.04
			c0.29-1.04,0.22-2.23,0.29-3.29c0.07-1.17,0.14-2.35,0.21-3.52s0.14-2.35,0.21-3.52c0.07-1.11,0.24-2.28,0.14-3.38
			c-0.21-2.2-2.12-3.02-4.09-3.08c-5.25-0.15-10.64,0.59-15.77,1.67c-1.89,0.4-1.09,3.29,0.8,2.89c2.98-0.63,5.99-1.08,9.02-1.32
			c1.5-0.12,3-0.2,4.5-0.22c0.52-0.01,2.32-0.23,2.54,0.27c0.1,0.23,0,0.65-0.01,0.89c-0.02,0.41-0.05,0.82-0.07,1.23
			c-0.05,0.76-0.09,1.53-0.14,2.29c-0.09,1.59-0.19,3.17-0.28,4.76c-0.04,0.7-0.08,1.41-0.12,2.11c-0.02,0.38-0.11,0.82-0.07,1.19
			c0.01,0.05-0.06,0.21-0.04,0.25c-0.06-0.21,0.33-0.04,0.12-0.18c-0.15-0.1-0.77,0.01-0.96,0.01c-0.35,0-0.7,0-1.05,0.01
			c-0.82,0-1.64,0.01-2.46,0.01c-1.76,0-3.51,0-5.27-0.02c-0.82-0.01-1.64-0.02-2.46-0.03c-0.47-0.01-0.94-0.01-1.41-0.02
			c-0.14,0-0.33-0.04-0.47-0.01c-0.28,0.05-0.09-0.08-0.07-0.05c0.13,0.22,0.26,0.44,0.39,0.66c-0.35-0.84-0.32-1.92-0.4-2.82
			c-0.09-1.04-0.16-2.08-0.2-3.13c-0.09-2.09-0.1-4.18-0.02-6.26C200.78,158.01,197.78,158.01,197.71,159.94L197.71,159.94z"/>
	</g>
</g>
<g>
	<g>
		<path d="M171.71,159.94c-0.08,2.38-0.07,4.76,0.07,7.13c0.06,1.1,0.15,2.2,0.26,3.3c0.11,1.11,0.07,2.48,0.88,3.34
			c0.7,0.75,1.61,0.82,2.57,0.84c1.29,0.02,2.58,0.03,3.86,0.04c2.34,0.02,4.68,0.02,7.03,0.01c1.98-0.01,4.8,0.42,5.49-2.04
			c0.29-1.04,0.22-2.23,0.29-3.29c0.07-1.17,0.14-2.35,0.21-3.52s0.14-2.35,0.21-3.52c0.07-1.11,0.24-2.28,0.14-3.38
			c-0.21-2.2-2.12-3.02-4.09-3.08c-5.25-0.15-10.64,0.59-15.77,1.67c-1.89,0.4-1.09,3.29,0.8,2.89c2.98-0.63,5.99-1.08,9.02-1.32
			c1.5-0.12,3-0.2,4.5-0.22c0.52-0.01,2.32-0.23,2.54,0.27c0.1,0.23,0,0.65-0.01,0.89c-0.02,0.41-0.05,0.82-0.07,1.23
			c-0.05,0.76-0.09,1.53-0.14,2.29c-0.09,1.59-0.19,3.17-0.28,4.76c-0.04,0.7-0.08,1.41-0.12,2.11c-0.02,0.38-0.11,0.82-0.07,1.19
			c0.01,0.05-0.06,0.21-0.04,0.25c-0.06-0.21,0.33-0.04,0.12-0.18c-0.15-0.1-0.77,0.01-0.96,0.01c-0.35,0-0.7,0-1.05,0.01
			c-0.82,0-1.64,0.01-2.46,0.01c-1.76,0-3.51,0-5.27-0.02c-0.82-0.01-1.64-0.02-2.46-0.03c-0.47-0.01-0.94-0.01-1.41-0.02
			c-0.14,0-0.33-0.04-0.47-0.01c-0.28,0.05-0.09-0.08-0.07-0.05c0.13,0.22,0.26,0.44,0.39,0.66c-0.35-0.84-0.32-1.92-0.4-2.82
			c-0.09-1.04-0.16-2.08-0.2-3.13c-0.09-2.09-0.1-4.18-0.02-6.26C174.78,158.01,171.78,158.01,171.71,159.94L171.71,159.94z"/>
	</g>
</g>
<g>
	<g>
		<path d="M145.71,159.94c-0.08,2.38-0.07,4.76,0.07,7.13c0.06,1.1,0.15,2.2,0.26,3.3c0.11,1.11,0.07,2.48,0.88,3.34
			c0.7,0.75,1.61,0.82,2.57,0.84c1.29,0.02,2.58,0.03,3.86,0.04c2.34,0.02,4.68,0.02,7.03,0.01c1.98-0.01,4.8,0.42,5.49-2.04
			c0.29-1.04,0.22-2.23,0.29-3.29c0.07-1.17,0.14-2.35,0.21-3.52s0.14-2.35,0.21-3.52c0.07-1.11,0.24-2.28,0.14-3.38
			c-0.21-2.2-2.12-3.02-4.09-3.08c-5.25-0.15-10.64,0.59-15.77,1.67c-1.89,0.4-1.09,3.29,0.8,2.89c2.98-0.63,5.99-1.08,9.02-1.32
			c1.5-0.12,3-0.2,4.5-0.22c0.52-0.01,2.32-0.23,2.54,0.27c0.1,0.23,0,0.65-0.01,0.89c-0.02,0.41-0.05,0.82-0.07,1.23
			c-0.05,0.76-0.09,1.53-0.14,2.29c-0.09,1.59-0.19,3.17-0.28,4.76c-0.04,0.7-0.08,1.41-0.12,2.11c-0.02,0.38-0.11,0.82-0.07,1.19
			c0.01,0.05-0.06,0.21-0.04,0.25c-0.06-0.21,0.33-0.04,0.12-0.18c-0.15-0.1-0.77,0.01-0.96,0.01c-0.35,0-0.7,0-1.05,0.01
			c-0.82,0-1.64,0.01-2.46,0.01c-1.76,0-3.51,0-5.27-0.02c-0.82-0.01-1.64-0.02-2.46-0.03c-0.47-0.01-0.94-0.01-1.41-0.02
			c-0.14,0-0.33-0.04-0.47-0.01c-0.28,0.05-0.09-0.08-0.07-0.05c0.13,0.22,0.26,0.44,0.39,0.66c-0.35-0.84-0.32-1.92-0.4-2.82
			c-0.09-1.04-0.16-2.08-0.2-3.13c-0.09-2.09-0.1-4.18-0.02-6.26C148.78,158.01,145.78,158.01,145.71,159.94L145.71,159.94z"/>
	</g>
</g>
<g>
	<g>
		<path d="M119.71,159.94c-0.08,2.38-0.07,4.76,0.07,7.13c0.06,1.1,0.15,2.2,0.26,3.3c0.11,1.11,0.07,2.48,0.88,3.34
			c0.7,0.75,1.61,0.82,2.57,0.84c1.29,0.02,2.58,0.03,3.86,0.04c2.34,0.02,4.68,0.02,7.03,0.01c1.98-0.01,4.8,0.42,5.49-2.04
			c0.29-1.04,0.22-2.23,0.29-3.29c0.07-1.17,0.14-2.35,0.21-3.52s0.14-2.35,0.21-3.52c0.07-1.11,0.24-2.28,0.14-3.38
			c-0.21-2.2-2.12-3.02-4.09-3.08c-5.25-0.15-10.64,0.59-15.77,1.67c-1.89,0.4-1.09,3.29,0.8,2.89c2.98-0.63,5.99-1.08,9.02-1.32
			c1.5-0.12,3-0.2,4.5-0.22c0.52-0.01,2.32-0.23,2.54,0.27c0.1,0.23,0,0.65-0.01,0.89c-0.02,0.41-0.05,0.82-0.07,1.23
			c-0.05,0.76-0.09,1.53-0.14,2.29c-0.09,1.59-0.19,3.17-0.28,4.76c-0.04,0.7-0.08,1.41-0.12,2.11c-0.02,0.38-0.11,0.82-0.07,1.19
			c0.01,0.05-0.06,0.21-0.04,0.25c-0.06-0.21,0.33-0.04,0.12-0.18c-0.15-0.1-0.77,0.01-0.96,0.01c-0.35,0-0.7,0-1.05,0.01
			c-0.82,0-1.64,0.01-2.46,0.01c-1.76,0-3.51,0-5.27-0.02c-0.82-0.01-1.64-0.02-2.46-0.03c-0.47-0.01-0.94-0.01-1.41-0.02
			c-0.14,0-0.33-0.04-0.47-0.01c-0.28,0.05-0.09-0.08-0.07-0.05c0.13,0.22,0.26,0.44,0.39,0.66c-0.35-0.84-0.32-1.92-0.4-2.82
			c-0.09-1.04-0.16-2.08-0.2-3.13c-0.09-2.09-0.1-4.18-0.02-6.26C122.78,158.01,119.78,158.01,119.71,159.94L119.71,159.94z"/>
	</g>
</g>
<g>
	<g>
		<path d="M91.57,183.93c-0.08,2.38-0.07,4.76,0.07,7.13c0.06,1.1,0.15,2.2,0.26,3.3c0.11,1.11,0.07,2.48,0.88,3.34
			c0.7,0.75,1.61,0.82,2.57,0.84c1.29,0.02,2.58,0.03,3.86,0.04c2.34,0.02,4.68,0.02,7.03,0.01c1.98-0.01,4.8,0.42,5.49-2.04
			c0.29-1.04,0.22-2.23,0.29-3.29c0.07-1.17,0.14-2.35,0.21-3.52c0.07-1.17,0.14-2.35,0.21-3.52c0.07-1.11,0.24-2.28,0.14-3.38
			c-0.21-2.2-2.12-3.02-4.09-3.08c-5.25-0.15-10.64,0.59-15.77,1.67c-1.89,0.4-1.09,3.29,0.8,2.89c2.98-0.63,5.99-1.08,9.02-1.32
			c1.5-0.12,3-0.2,4.5-0.22c0.52-0.01,2.32-0.23,2.54,0.27c0.1,0.22,0,0.65-0.01,0.89c-0.02,0.41-0.05,0.82-0.07,1.23
			c-0.05,0.76-0.09,1.53-0.14,2.29c-0.09,1.59-0.19,3.17-0.28,4.76c-0.04,0.7-0.08,1.41-0.12,2.11c-0.02,0.38-0.11,0.82-0.07,1.19
			c0.01,0.05-0.06,0.21-0.04,0.25c-0.06-0.21,0.33-0.04,0.12-0.18c-0.15-0.1-0.77,0.01-0.96,0.01c-0.35,0-0.7,0-1.05,0.01
			c-0.82,0-1.64,0.01-2.46,0.01c-1.76,0-3.51,0-5.27-0.02c-0.82-0.01-1.64-0.02-2.46-0.03c-0.47-0.01-0.94-0.01-1.41-0.02
			c-0.14,0-0.33-0.04-0.47-0.01c-0.28,0.05-0.09-0.08-0.07-0.05c0.13,0.22,0.26,0.44,0.39,0.66c-0.35-0.84-0.32-1.92-0.4-2.82
			c-0.09-1.04-0.16-2.08-0.2-3.13c-0.09-2.09-0.1-4.18-0.02-6.26C94.64,182,91.64,182.01,91.57,183.93L91.57,183.93z"/>
	</g>
</g>
<g>
	<g>
		<path d="M250.71,183.94c-0.08,2.38-0.07,4.76,0.07,7.13c0.06,1.1,0.15,2.2,0.26,3.3c0.11,1.11,0.07,2.48,0.88,3.34
			c0.7,0.75,1.61,0.82,2.57,0.84c1.29,0.02,2.58,0.03,3.86,0.04c2.34,0.02,4.68,0.02,7.03,0.01c1.98-0.01,4.8,0.42,5.49-2.04
			c0.29-1.04,0.22-2.23,0.29-3.29c0.07-1.17,0.14-2.35,0.21-3.52c0.07-1.17,0.14-2.35,0.21-3.52c0.07-1.11,0.24-2.28,0.14-3.38
			c-0.21-2.2-2.12-3.02-4.09-3.08c-5.25-0.15-10.64,0.59-15.77,1.67c-1.89,0.4-1.09,3.29,0.8,2.89c2.98-0.63,5.99-1.08,9.02-1.32
			c1.5-0.12,3-0.2,4.5-0.22c0.52-0.01,2.32-0.23,2.54,0.27c0.1,0.23,0,0.65-0.01,0.89c-0.02,0.41-0.05,0.82-0.07,1.23
			c-0.05,0.76-0.09,1.53-0.14,2.29c-0.09,1.59-0.19,3.17-0.28,4.76c-0.04,0.7-0.08,1.41-0.12,2.11c-0.02,0.38-0.11,0.82-0.07,1.19
			c0.01,0.05-0.06,0.21-0.04,0.25c-0.06-0.21,0.33-0.04,0.12-0.18c-0.15-0.1-0.77,0.01-0.96,0.01c-0.35,0-0.7,0-1.05,0.01
			c-0.82,0-1.64,0.01-2.46,0.01c-1.76,0-3.51,0-5.27-0.02c-0.82-0.01-1.64-0.02-2.46-0.03c-0.47-0.01-0.94-0.01-1.41-0.02
			c-0.14,0-0.33-0.04-0.47-0.01c-0.28,0.05-0.09-0.08-0.07-0.05c0.13,0.22,0.26,0.44,0.39,0.66c-0.35-0.84-0.32-1.92-0.4-2.82
			c-0.09-1.04-0.16-2.08-0.2-3.13c-0.09-2.09-0.1-4.18-0.02-6.26C253.78,182.01,250.78,182.01,250.71,183.94L250.71,183.94z"/>
	</g>
</g>
<g>
	<g>
		<path d="M223.71,183.94c-0.08,2.38-0.07,4.76,0.07,7.13c0.06,1.1,0.15,2.2,0.26,3.3c0.11,1.11,0.07,2.48,0.88,3.34
			c0.7,0.75,1.61,0.82,2.57,0.84c1.29,0.02,2.58,0.03,3.86,0.04c2.34,0.02,4.68,0.02,7.03,0.01c1.98-0.01,4.8,0.42,5.49-2.04
			c0.29-1.04,0.22-2.23,0.29-3.29c0.07-1.17,0.14-2.35,0.21-3.52s0.14-2.35,0.21-3.52c0.07-1.11,0.24-2.28,0.14-3.38
			c-0.21-2.2-2.12-3.02-4.09-3.08c-5.25-0.15-10.64,0.59-15.77,1.67c-1.89,0.4-1.09,3.29,0.8,2.89c2.98-0.63,5.99-1.08,9.02-1.32
			c1.5-0.12,3-0.2,4.5-0.22c0.52-0.01,2.32-0.23,2.54,0.27c0.1,0.23,0,0.65-0.01,0.89c-0.02,0.41-0.05,0.82-0.07,1.23
			c-0.05,0.76-0.09,1.53-0.14,2.29c-0.09,1.59-0.19,3.17-0.28,4.76c-0.04,0.7-0.08,1.41-0.12,2.11c-0.02,0.38-0.11,0.82-0.07,1.19
			c0.01,0.05-0.06,0.21-0.04,0.25c-0.06-0.21,0.33-0.04,0.12-0.18c-0.15-0.1-0.77,0.01-0.96,0.01c-0.35,0-0.7,0-1.05,0.01
			c-0.82,0-1.64,0.01-2.46,0.01c-1.76,0-3.51,0-5.27-0.02c-0.82-0.01-1.64-0.02-2.46-0.03c-0.47-0.01-0.94-0.01-1.41-0.02
			c-0.14,0-0.33-0.04-0.47-0.01c-0.28,0.05-0.09-0.08-0.07-0.05c0.13,0.22,0.26,0.44,0.39,0.66c-0.35-0.84-0.32-1.92-0.4-2.82
			c-0.09-1.04-0.16-2.08-0.2-3.13c-0.09-2.09-0.1-4.18-0.02-6.26C226.78,182.01,223.78,182.01,223.71,183.94L223.71,183.94z"/>
	</g>
</g>
<g>
	<g>
		<path d="M119.71,183.94c-0.08,2.38-0.07,4.76,0.07,7.13c0.06,1.1,0.15,2.2,0.26,3.3c0.11,1.11,0.07,2.48,0.88,3.34
			c0.7,0.75,1.61,0.82,2.57,0.84c1.29,0.02,2.58,0.03,3.86,0.04c2.34,0.02,4.68,0.02,7.03,0.01c1.98-0.01,4.8,0.42,5.49-2.04
			c0.29-1.04,0.22-2.23,0.29-3.29c0.07-1.17,0.14-2.35,0.21-3.52s0.14-2.35,0.21-3.52c0.07-1.11,0.24-2.28,0.14-3.38
			c-0.21-2.2-2.12-3.02-4.09-3.08c-5.25-0.15-10.64,0.59-15.77,1.67c-1.89,0.4-1.09,3.29,0.8,2.89c2.98-0.63,5.99-1.08,9.02-1.32
			c1.5-0.12,3-0.2,4.5-0.22c0.52-0.01,2.32-0.23,2.54,0.27c0.1,0.23,0,0.65-0.01,0.89c-0.02,0.41-0.05,0.82-0.07,1.23
			c-0.05,0.76-0.09,1.53-0.14,2.29c-0.09,1.59-0.19,3.17-0.28,4.76c-0.04,0.7-0.08,1.41-0.12,2.11c-0.02,0.38-0.11,0.82-0.07,1.19
			c0.01,0.05-0.06,0.21-0.04,0.25c-0.06-0.21,0.33-0.04,0.12-0.18c-0.15-0.1-0.77,0.01-0.96,0.01c-0.35,0-0.7,0-1.05,0.01
			c-0.82,0-1.64,0.01-2.46,0.01c-1.76,0-3.51,0-5.27-0.02c-0.82-0.01-1.64-0.02-2.46-0.03c-0.47-0.01-0.94-0.01-1.41-0.02
			c-0.14,0-0.33-0.04-0.47-0.01c-0.28,0.05-0.09-0.08-0.07-0.05c0.13,0.22,0.26,0.44,0.39,0.66c-0.35-0.84-0.32-1.92-0.4-2.82
			c-0.09-1.04-0.16-2.08-0.2-3.13c-0.09-2.09-0.1-4.18-0.02-6.26C122.78,182.01,119.78,182.01,119.71,183.94L119.71,183.94z"/>
	</g>
</g>
<g>
	<g>
		<path d="M146.3,183.94c-0.35,2.62-0.22,5.27,0.38,7.85c0.31,1.32,0.75,2.6,1.28,3.85c0.38,0.91,0.74,1.68,1.65,2.17
			c2.16,1.16,5.32,0.73,7.67,0.74c2.99,0.01,5.99,0.02,8.98,0.03c11.97,0.03,23.94,0.04,35.91,0.02c2.91,0,5.83,0.07,8.74-0.05
			c1.88-0.08,4.56-0.17,5.54-2.1c0.54-1.06,0.65-2.43,0.91-3.58c0.33-1.45,0.67-2.91,1-4.36c0.33-1.45,0.73-2.9,1-4.36
			c0.17-0.93,0.15-1.81-0.53-2.54c-1.26-1.36-3.73-1.47-5.44-1.63c-2.49-0.23-5.01-0.22-7.51-0.22c-5.99,0.01-11.97,0.07-17.95,0.17
			c-13.34,0.24-26.68,0.72-40.01,1.44c-1.92,0.1-1.93,3.11,0,3c10.68-0.58,21.36-1,32.05-1.27c5.39-0.13,10.79-0.23,16.18-0.29
			c5.08-0.05,10.2-0.21,15.28,0.03c1.52,0.07,3.62-0.01,5.02,0.72c1.01,0.53-0.1-0.42,0.02-0.21c0.05,0.08-0.18,0.8-0.22,0.97
			c-0.15,0.65-0.3,1.29-0.45,1.94c-0.32,1.37-0.63,2.75-0.95,4.12c-0.28,1.21-0.56,2.42-0.84,3.63c-0.26,1.13-0.09,1.16-1.27,1.38
			c-2.45,0.44-5.11,0.2-7.59,0.2c-10.81,0.02-21.62,0.02-32.42,0c-5.97-0.01-11.94,0-17.91-0.05c-0.75-0.01-1.49-0.01-2.24-0.07
			c-0.42-0.03-1.19-0.01-1.52-0.27c-0.66-0.51-0.98-2.31-1.22-3.11c-0.77-2.67-0.93-5.39-0.56-8.14c0.11-0.81-0.77-1.49-1.5-1.5
			C146.9,182.43,146.4,183.14,146.3,183.94L146.3,183.94z"/>
	</g>
</g>
</svg>
