<?xml version="1.0" encoding="utf-8"?>
<!-- Generator: Adobe Illustrator 25.4.1, SVG Export Plug-In . SVG Version: 6.00 Build 0)  -->
<svg version="1.1" id="Layer_1" xmlns="http://www.w3.org/2000/svg" xmlns:xlink="http://www.w3.org/1999/xlink" x="0px" y="0px"
	 viewBox="0 0 400 400" style="enable-background:new 0 0 400 400;" xml:space="preserve">
<g>
	<g>
		<path d="M76.4,108.05c23.04,0.11,46.07,0.23,69.11,0.34c11.56,0.06,23.12,0.11,34.68,0.17c2.83,0.01,5.66,0.03,8.48,0.04
			c1.41,0.01,2.83,0.01,4.24,0.02c0.66,0,1.34,0.04,2,0.01c0.28-0.01,0.31-0.12,0.4-0.04c0.16,0.12,0.04,0.95,0.04,1.15
			c0.12,5.71,0.24,11.42,0.36,17.13c0.27,12.91,0.55,25.83,0.82,38.74c0.37-0.48,0.73-0.96,1.1-1.45c-8,1.64-16.24,1.39-24.36,1.42
			c-8.16,0.03-16.31,0.06-24.47,0.09c-16.48,0.06-32.96,0.13-49.44,0.19c-9.32,0.04-18.65,0.07-27.97,0.11c0.5,0.5,1,1,1.5,1.5
			c0.14-20.18,0.81-40.35,2.02-60.49c0.12-1.93-2.88-1.92-3,0c-1.21,20.14-1.88,40.31-2.02,60.49c-0.01,0.81,0.69,1.5,1.5,1.5
			c33.3-0.13,66.59-0.26,99.89-0.38c9.05-0.03,18.24,0.3,27.16-1.53c0.63-0.13,1.11-0.82,1.1-1.45c-0.25-11.92-0.5-23.84-0.76-35.76
			c-0.12-5.88-0.25-11.75-0.37-17.63c-0.04-1.99,0.55-5.53-1.89-6.38c-1.18-0.41-2.62-0.21-3.85-0.22c-1.5-0.01-2.99-0.01-4.49-0.02
			c-23.87-0.12-47.74-0.23-71.61-0.35c-13.39-0.07-26.78-0.13-40.17-0.2C74.46,105.04,74.46,108.04,76.4,108.05L76.4,108.05z"/>
	</g>
</g>
<g>
	<g>
		<path d="M69.22,166.63c-0.24,2.48-0.08,4.98,0.39,7.43c0.15,0.77,1.12,1.28,1.85,1.05c0.82-0.27,1.21-1.02,1.05-1.85
			c-0.06-0.29-0.11-0.58-0.16-0.87c-0.02-0.16-0.05-0.31-0.07-0.47c0.04,0.27,0-0.04-0.02-0.14c-0.07-0.56-0.11-1.13-0.14-1.69
			c-0.05-1.15-0.02-2.31,0.09-3.46c0.08-0.78-0.74-1.53-1.5-1.5C69.84,165.17,69.3,165.8,69.22,166.63L69.22,166.63z"/>
	</g>
</g>
<g>
	<g>
		<path d="M97.05,151.36c0.25-0.21-0.18-0.3-0.4-0.49c-0.3-0.26-0.51-0.57-0.74-0.89c-0.66-0.91-1.3-1.84-1.95-2.76
			c-1.19-1.68-2.38-3.36-3.56-5.04c-2.21-3.14-4.43-6.43-5.51-10.15c-0.98-3.39-1.03-7.25,0.91-10.32c1.59-2.51,4.3-4.12,7.14-4.81
			c6.74-1.64,13.29,2.36,17.52,7.34c2.31,2.72,4.24,6.19,4.44,9.82c0.2,3.62-1.47,6.83-3.7,9.58c-2.49,3.07-5.37,5.99-8.34,8.6
			c-1.5,1.33-3.11,2.54-4.86,3.53c-1.69,0.95-3.97,2.17-5.95,1.68c-1.87-0.46-2.67,2.43-0.8,2.89c4.15,1.02,8.69-1.96,11.81-4.39
			c3.41-2.65,6.49-5.86,9.33-9.1c2.74-3.13,5.09-6.7,5.48-10.94c0.4-4.37-1.45-8.73-4.01-12.17c-4.81-6.47-12.69-11.5-21.03-9.88
			c-3.66,0.71-7.06,2.73-9.24,5.76c-2.48,3.44-2.8,7.95-1.91,11.99c1.13,5.16,4.32,9.55,7.31,13.78c1.6,2.26,3.12,4.59,4.81,6.78
			c1.33,1.72,3.48,2.9,5.37,1.32C100.65,152.25,98.52,150.14,97.05,151.36L97.05,151.36z"/>
	</g>
</g>
<g>
	<g>
		<path d="M161.03,150.63c-2.93,1.28-5.83-1.29-7.71-3.22c-2.09-2.15-4.25-4.37-5.76-6.98c-1.58-2.73-2.27-5.96-2.83-9.03
			c-0.25-1.39-0.22-2.6,0.65-3.77c0.84-1.13,2.13-1.84,3.44-2.26c3.08-0.97,6.55-0.99,9.75-1.17c2.88-0.16,6.12-0.39,8.71,1.13
			c2.48,1.46,4.05,4.26,5.28,6.78c1.28,2.63,2.78,6.07,1.26,8.89c-2.96,5.48-10.76,6.55-16.26,7.44c-1.9,0.31-1.09,3.2,0.8,2.89
			c6.35-1.03,13.95-2.47,17.74-8.31c2.18-3.36,1.31-7.16-0.14-10.62c-1.36-3.25-3.21-6.68-6.04-8.88
			c-2.87-2.22-6.52-2.53-10.02-2.39c-2.11,0.08-4.21,0.25-6.31,0.44c-1.87,0.17-3.78,0.34-5.57,0.91c-3.08,0.97-5.99,3.28-6.4,6.67
			c-0.22,1.83,0.34,3.73,0.73,5.51c0.42,1.89,0.95,3.75,1.73,5.53c1.66,3.79,4.68,6.94,7.57,9.82c2.92,2.91,6.8,5.01,10.89,3.22
			C164.31,152.45,162.79,149.87,161.03,150.63L161.03,150.63z"/>
	</g>
</g>
<g>
	<g>
		<path d="M157.34,123.21c0,3.36,0,6.73,0,10.09c0,0.81,0.69,1.5,1.5,1.5c0.81,0,1.5-0.69,1.5-1.5c0-3.36,0-6.73,0-10.09
			c0-0.81-0.69-1.5-1.5-1.5C158.03,121.71,157.34,122.4,157.34,123.21L157.34,123.21z"/>
	</g>
</g>
<g>
	<g>
		<path d="M149.54,139.64c3.83-0.56,7.65-1.12,11.48-1.68c0.8-0.12,1.24-1.13,1.05-1.85c-0.24-0.86-1.04-1.17-1.85-1.05
			c-3.83,0.56-7.65,1.12-11.48,1.68c-0.8,0.12-1.24,1.13-1.05,1.85C147.93,139.45,148.73,139.75,149.54,139.64L149.54,139.64z"/>
	</g>
</g>
<g>
	<g>
		<path d="M160.6,137.54c3.8-0.12,7.6-0.25,11.41-0.37c0.81-0.03,1.5-0.67,1.5-1.5c0-0.79-0.69-1.53-1.5-1.5
			c-3.8,0.12-7.6,0.25-11.41,0.37c-0.81,0.03-1.5,0.67-1.5,1.5C159.1,136.83,159.79,137.57,160.6,137.54L160.6,137.54z"/>
	</g>
</g>
<g>
	<g>
		<path d="M158.66,136.37c0,2.49,0,4.97,0,7.46c0,0.78,0.69,1.54,1.5,1.5c0.81-0.04,1.5-0.66,1.5-1.5c0-2.49,0-4.97,0-7.46
			c0-0.78-0.69-1.54-1.5-1.5C159.35,134.9,158.66,135.53,158.66,136.37L158.66,136.37z"/>
	</g>
</g>
<g>
	<g>
		<path d="M88.22,137.32c6.13-0.43,12.28-0.52,18.43-0.29c1.93,0.07,1.93-2.93,0-3c-6.14-0.23-12.29-0.14-18.43,0.29
			C86.31,134.46,86.29,137.46,88.22,137.32L88.22,137.32z"/>
	</g>
</g>
<g>
	<g>
		<path d="M95.94,125.4c0,5.56,0,11.11,0,16.67c0,1.93,3,1.93,3,0c0-5.56,0-11.11,0-16.67C98.94,123.47,95.94,123.47,95.94,125.4
			L95.94,125.4z"/>
	</g>
</g>
<g>
	<g>
		<path d="M113.04,112.25c0.05,2.25,0.1,4.51,0.14,6.76c0.98-0.13,1.96-0.27,2.95-0.4c-0.25-1.11-0.47-2.07-0.5-3.14
			c-0.02-0.51,0.01-0.97,0.09-1.36c0.05-0.25,0.12-0.49,0.21-0.74c-0.02,0.06-0.12,0.24,0.01-0.02c0.06-0.12,0.12-0.25,0.19-0.37
			c0.05-0.08,0.1-0.16,0.15-0.24c-0.01,0.02,0.26-0.34,0.13-0.18c-0.13,0.16,0.17-0.18,0.15-0.16c0.06-0.07,0.13-0.13,0.19-0.19
			c0.07-0.06,0.13-0.12,0.2-0.18c-0.21,0.17,0.02-0.01,0.08-0.04c0.09-0.06,0.19-0.11,0.29-0.17c0.25-0.16-0.19,0.04,0.12-0.06
			c0.08-0.03,0.17-0.05,0.25-0.08c0.01,0,0.41-0.06,0.19-0.04c-0.23,0.02,0.2,0,0.19,0c0.09,0,0.18,0,0.27,0.02
			c-0.31-0.05-0.06,0-0.01,0.02c-0.21-0.29-0.42-0.58-0.63-0.87c0.02-0.12,0.02-0.14,0-0.06c-0.04,0.2,0.18-0.32,0.02-0.06
			c-0.14,0.24,0.24-0.23,0.03-0.03c-0.15,0.14,0.1-0.02,0.11-0.07c0,0.02-0.12,0.08-0.14,0.09c-0.35,0.18,0.27-0.05-0.14,0.06
			c-0.12,0.03-0.25,0.07-0.37,0.09c-0.08,0.02-0.17,0.02-0.25,0.04c-0.13,0.03,0.34-0.03-0.01,0c-0.77,0.08-1.56,0.13-2.32,0.3
			c-0.78,0.18-1.57,0.56-2.1,1.18c-0.79,0.91-0.99,2.09-0.75,3.25c0.23,1.12,0.91,2.12,1.73,2.88c0.84,0.78,1.82,1.4,2.54,2.32
			c0.49,0.62,1.62,0.55,2.12,0c0.6-0.66,0.52-1.46,0-2.12c-0.69-0.87-1.61-1.48-2.42-2.21c-0.2-0.18-0.37-0.36-0.56-0.55
			c-0.28-0.28,0.12,0.23-0.09-0.12c-0.05-0.08-0.1-0.15-0.14-0.23c-0.07-0.12-0.13-0.24-0.19-0.36c0.03,0.07,0.08,0.24,0-0.02
			c-0.04-0.13-0.07-0.26-0.1-0.39c0.06,0.25,0,0.02,0-0.12c0-0.02,0.06-0.4,0-0.18c-0.06,0.23,0.06-0.16,0.06-0.16
			c-0.1,0.31-0.03,0.02,0.04-0.03c0.16-0.11-0.13,0.21,0.03-0.02c0.16-0.23-0.18,0.07-0.04,0.02c0.07-0.02,0.15-0.09,0.21-0.13
			c0.26-0.17-0.23,0.05-0.04,0.01c0.11-0.02,0.23-0.08,0.34-0.11c0.17-0.05,0.34-0.08,0.51-0.11c0.07-0.01,0.14-0.02,0.21-0.03
			c-0.42,0.06-0.05,0.01,0.03,0c0.39-0.04,0.78-0.07,1.17-0.13c0.93-0.12,1.85-0.32,2.57-0.97c0.96-0.87,1.3-2.49,0.34-3.49
			c-0.87-0.91-2.49-0.87-3.59-0.46c-1.15,0.43-2.06,1.21-2.76,2.21c-1.71,2.43-1.13,5.59-0.53,8.29c0.37,1.65,2.98,1.29,2.95-0.4
			c-0.05-2.25-0.1-4.51-0.14-6.76c-0.02-0.78-0.68-1.54-1.5-1.5C113.75,110.78,113.03,111.41,113.04,112.25L113.04,112.25z"/>
	</g>
</g>
<g>
	<g>
		<path d="M122.69,113.12c0,2.78,0,5.56,0,8.33c0,0.78,0.69,1.54,1.5,1.5c0.81-0.04,1.5-0.66,1.5-1.5c0-2.78,0-5.56,0-8.33
			c0-0.78-0.69-1.54-1.5-1.5C123.38,111.66,122.69,112.28,122.69,113.12L122.69,113.12z"/>
	</g>
</g>
<g>
	<g>
		<path d="M121.13,114.71c2.77-0.33,5.55-0.66,8.32-0.98c0.78-0.09,1.54-0.62,1.5-1.5c-0.03-0.73-0.67-1.6-1.5-1.5
			c-2.77,0.33-5.55,0.66-8.32,0.98c-0.78,0.09-1.54,0.62-1.5,1.5C119.67,113.94,120.3,114.81,121.13,114.71L121.13,114.71z"/>
	</g>
</g>
<g>
	<g>
		<path d="M132.03,109.98c-0.44,3.6-0.56,7.64,1.82,10.63c2,2.52,5.62,3.83,8.58,2.21c1.69-0.93,0.18-3.52-1.51-2.59
			c-0.39,0.21-0.78,0.32-1.24,0.33c-0.15,0-0.3-0.01-0.44-0.02c-0.31-0.02,0.13,0.05-0.19-0.03c-0.27-0.07-0.54-0.14-0.8-0.23
			c-0.78-0.29-1.8-1.12-2.3-1.87c-1.6-2.44-1.24-5.67-0.9-8.43c0.1-0.81-0.76-1.5-1.5-1.5
			C132.63,108.48,132.13,109.17,132.03,109.98L132.03,109.98z"/>
	</g>
</g>
<g>
	<g>
		<path d="M139.87,112.57c-2.93,3.05-5.37,6.57-7.17,10.39c-0.34,0.73-0.2,1.62,0.54,2.05c0.65,0.38,1.71,0.2,2.05-0.54
			c1.72-3.66,3.94-6.91,6.7-9.79c0.56-0.58,0.58-1.54,0-2.12C141.43,112.01,140.43,111.98,139.87,112.57L139.87,112.57z"/>
	</g>
</g>
<g>
	<g>
		<path d="M121.48,134.68c0,0,0.35-0.16,0.17-0.08c-0.18,0.08,0.15-0.06,0.18-0.07c0.16-0.06,0.45-0.2,0.62-0.17
			c-0.17,0.02-0.2,0.03-0.09,0.02c0.06,0,0.12,0,0.18,0c-0.01-0.03-0.28-0.06-0.04,0c0.37,0.1-0.21-0.12,0,0.01
			c-0.06-0.05-0.13-0.1-0.19-0.14c0.08,0.08,0.07,0.07-0.02-0.04c-0.18-0.26,0,0.03,0.01,0.03c-0.07-0.04-0.09-0.37-0.05-0.11
			c0.03,0.18-0.03,0.11,0-0.14c-0.01,0.05-0.01,0.14,0,0.18c0.04,0.12,0.06-0.38,0.02-0.16c-0.05,0.23,0.14-0.29,0.06-0.15
			c-0.06,0.1-0.02,0.04,0.14-0.18c0.07-0.05,0.14-0.1,0.2-0.16c-0.2,0.13,0.37-0.11,0.1-0.06c-0.45,0.09-0.8,0.47-0.97,0.87
			c-0.2,0.47-0.12,0.88,0.08,1.33c0.55,1.26,1.98,1.34,3.16,1.21c0.22-0.02,0.43-0.05,0.65-0.05c0.11,0,0.24,0.03,0.36,0.01
			c-0.24-0.04-0.3-0.04-0.19-0.02c0.04,0.01,0.08,0.02,0.12,0.03c-0.24-0.11-0.28-0.13-0.15-0.06c0.04,0.02,0.09,0.05,0.13,0.08
			c-0.2-0.16-0.24-0.19-0.13-0.09c0.04,0.03,0.07,0.07,0.1,0.11c-0.21-0.14-0.17-0.24-0.06-0.05c0.19,0.34-0.05-0.24,0.01,0
			c0.02,0.09,0.04,0.24,0.08,0.31c-0.06-0.12-0.03-0.36-0.02-0.07c0,0.1-0.03,0.23-0.01,0.33c0.04-0.26,0.05-0.31,0.02-0.15
			c-0.01,0.05-0.02,0.11-0.04,0.16c-0.02,0.07-0.07,0.16-0.08,0.24c0.1-0.23,0.12-0.27,0.05-0.13c-0.03,0.05-0.05,0.1-0.08,0.14
			c-0.2,0.33,0.17-0.14-0.05,0.06c-0.08,0.07-0.15,0.15-0.23,0.22c-0.13,0.1-0.11,0.09,0.06-0.04c-0.06,0.04-0.12,0.08-0.17,0.12
			c-0.12,0.08-0.24,0.15-0.37,0.21c-0.09,0.05-0.19,0.11-0.29,0.14c0.4-0.11-0.07,0.02-0.15,0.04c-0.52,0.18-1.06,0.3-1.6,0.42
			c-0.77,0.17-1.29,1.1-1.05,1.85c0.26,0.81,1.02,1.23,1.85,1.05c2.03-0.44,4.37-1.26,5-3.49c0.27-0.96,0.17-2.06-0.33-2.94
			c-0.57-0.99-1.6-1.5-2.72-1.5c-0.45,0-0.89,0.09-1.34,0.11c-0.1,0.01-0.2,0-0.3,0.01c-0.04,0-0.08-0.01-0.12-0.01
			c0.36-0.06,0.28,0.08,0.14,0.01c-0.15-0.07,0.22,0.11,0.19,0.09c-0.17-0.1,0.12,0.1,0.13,0.12c-0.04-0.04-0.12-0.14,0.02,0.04
			c0.16,0.2,0.03,0.01,0-0.05c-0.3,0.73-0.6,1.47-0.9,2.2c1.67-0.32,2.08-2.45,1.27-3.73c-0.51-0.8-1.36-1.21-2.3-1.25
			c-0.91-0.04-1.78,0.34-2.59,0.71c-0.71,0.33-0.95,1.42-0.54,2.05C119.9,134.88,120.71,135.03,121.48,134.68L121.48,134.68z"/>
	</g>
</g>
<g>
	<g>
		<path d="M131.2,140.24c-0.27,0.07,0.05,0,0.1,0c0.05,0,0.34,0.1,0.12,0.01c0,0,0.28,0.14,0.14,0.05c-0.16-0.1,0.18,0.21,0.06,0.06
			c-0.04-0.05-0.1-0.11-0.15-0.15c-0.12-0.09,0.05,0.06,0.06,0.09c-0.08-0.15-0.17-0.31-0.26-0.46c-0.11-0.18,0.08,0.23,0.01,0.03
			c-0.02-0.06-0.04-0.11-0.06-0.17c-0.05-0.14-0.09-0.29-0.13-0.44c-0.11-0.43-0.2-0.86-0.28-1.3c-0.06-0.31-0.09-0.48-0.11-0.91
			c-0.01-0.22,0-0.43,0-0.65c0-0.02,0.02-0.29,0-0.09c0.01-0.09,0.03-0.19,0.05-0.28c0.04-0.16,0.09-0.32,0.14-0.48
			c0.03-0.08,0.13-0.23-0.01,0.01c0.03-0.05,0.06-0.11,0.09-0.17c0.07-0.13,0.16-0.25,0.23-0.37c-0.13,0.22-0.06,0.07-0.01,0.01
			c0.07-0.08,0.14-0.15,0.21-0.22c0.03-0.03,0.23-0.2,0.08-0.08c-0.14,0.11,0.02-0.01,0.04-0.03c0.07-0.04,0.14-0.08,0.21-0.12
			c0.23-0.14,0.03-0.01-0.03,0.01c0.08-0.02,0.15-0.05,0.23-0.07c0.03-0.01,0.24-0.04,0.04-0.01c-0.21,0.03,0.04,0.01,0.09,0
			c0.21-0.01,0.16-0.05-0.01-0.02c0.12-0.02,0.25,0.09,0.37,0.09c0.18,0-0.2-0.13-0.05-0.03c0.06,0.04,0.13,0.07,0.2,0.11
			c0.11,0.07,0.33,0.25,0.11,0.06c0.13,0.12,0.26,0.23,0.37,0.36c0.04,0.04,0.08,0.09,0.12,0.13c-0.2-0.22-0.06-0.08-0.02-0.02
			c0.08,0.14,0.17,0.27,0.25,0.41c0.03,0.05,0.06,0.11,0.08,0.16c0.02,0.04,0.11,0.28,0.05,0.1c-0.06-0.17,0,0.02,0.01,0.05
			c0.04,0.12,0.08,0.23,0.11,0.35c0.04,0.14,0.06,0.27,0.09,0.41c0.04,0.17-0.01-0.09-0.01-0.11c0,0.07,0.01,0.15,0.01,0.22
			c0,0.09,0.03,0.37-0.02,0.45c0,0,0.06-0.3,0.02-0.12c-0.02,0.09-0.03,0.19-0.06,0.28c-0.04,0.17-0.11,0.33-0.15,0.49
			c-0.04,0.16,0.03-0.08,0.04-0.09c-0.04,0.08-0.08,0.17-0.13,0.25c-0.08,0.15-0.17,0.29-0.26,0.43c0.18-0.27-0.02,0.01-0.11,0.11
			c0,0-0.13,0.14-0.15,0.14c0.07,0.01,0.23-0.15,0.02-0.02c-0.06,0.03-0.12,0.06-0.17,0.1c-0.11,0.09,0.32-0.08,0.04-0.02
			c-0.02,0-0.19,0.05-0.19,0.05c0.01-0.05,0.35,0,0.11-0.02c0.02,0-0.2,0-0.2-0.01c0-0.01,0.37,0.08-0.01-0.03
			c-0.75-0.23-1.67,0.27-1.85,1.05c-0.18,0.81,0.24,1.6,1.05,1.85c2.13,0.64,3.9-0.95,4.64-2.81c0.7-1.76,0.37-3.84-0.76-5.36
			c-0.63-0.85-1.45-1.54-2.48-1.84c-1.03-0.29-2.21-0.13-3.11,0.46c-0.93,0.61-1.57,1.5-1.97,2.53c-0.45,1.16-0.39,2.43-0.21,3.64
			c0.17,1.13,0.39,2.35,0.98,3.34c0.67,1.13,1.85,1.89,3.19,1.51c0.75-0.21,1.3-1.07,1.05-1.85
			C132.8,140.52,132.01,140.01,131.2,140.24L131.2,140.24z"/>
	</g>
</g>
<g>
	<g>
		<path d="M128.17,141.03c-2.59,0.38-5.28,1.68-6.91,3.78c-1.67,2.15-1.4,4.98,0.78,6.66c2.08,1.6,4.9,1.32,6.97-0.15
			c2.35-1.66,3.44-4.28,4.46-6.87c-0.96-0.27-1.93-0.53-2.89-0.8c-1.83,6.03-2.87,12.29-3.09,18.59c-0.07,1.93,2.93,1.93,3,0
			c0.22-6.04,1.22-12,2.98-17.79c0.57-1.88-2.21-2.56-2.89-0.8c-0.64,1.63-1.3,3.38-2.58,4.63c-0.99,0.97-2.64,1.8-3.95,0.94
			c-1.42-0.93-0.89-2.25,0.2-3.23c1.31-1.18,3.01-1.82,4.74-2.07c0.8-0.12,1.25-1.13,1.05-1.85
			C129.77,141.22,128.97,140.91,128.17,141.03L128.17,141.03z"/>
	</g>
</g>
<g>
	<g>
		<path d="M136.73,156.99c0.12-0.16,0.3-0.19,0.4-0.28c-0.03,0.03-0.16-0.12-0.02,0.02c-0.23-0.22-0.28-0.57-0.35-0.93
			c-0.16-0.91-0.14-2.08-0.05-3.07c0.17-1.89,0.77-4.08,1.95-5.6c0.49-0.63,1.18-1.15,1.97-1.18c0.78-0.03,1.2,0.52,1.58,1.17
			c1.06,1.82,1.76,3.91,2,6c0.07,0.58,0.08,1.15,0.09,1.74c0-0.05,0.01,0.24,0.01,0.15c-0.04,0.04-0.07,0.07-0.11,0.11
			c0.02-0.02,0.04-0.04,0.06-0.06c-0.01-0.13,0.15,0.09-0.05,0c0.16,0.07,0.03,0.01-0.05-0.02c0.2,0.07-0.09-0.02-0.16-0.04
			c-0.18-0.05-0.36-0.12-0.46-0.16c-0.43-0.21-0.78-0.45-1.1-0.73c-0.61-0.53-1.52-0.6-2.12,0c-0.54,0.54-0.61,1.59,0,2.12
			c1.06,0.92,2.39,1.77,3.83,1.8c1.56,0.03,2.81-1.07,3.06-2.59c0.26-1.61-0.09-3.44-0.48-5.01c-0.39-1.58-1-3.13-1.79-4.56
			c-0.75-1.37-1.82-2.59-3.43-2.86c-1.65-0.28-3.27,0.33-4.48,1.45c-1.16,1.08-1.87,2.57-2.41,4.03c-0.57,1.53-0.87,3.17-0.96,4.8
			c-0.09,1.66-0.07,3.73,0.96,5.12c0.56,0.75,1.36,1.22,2.3,1.27c1.02,0.06,1.79-0.4,2.39-1.19c0.49-0.64,0.1-1.68-0.54-2.05
			C138.01,156,137.23,156.34,136.73,156.99L136.73,156.99z"/>
	</g>
</g>
<g>
	<g>
		<path d="M98.75,155.41c1.93,0,1.93-3,0-3C96.82,152.41,96.82,155.41,98.75,155.41L98.75,155.41z"/>
	</g>
</g>
</svg>
